<svg xmlns="http://www.w3.org/2000/svg" width="50.303" height="45.744" viewBox="0 0 50.303 45.744">
  <g id="about" transform="translate(-631.782 -734.768)">
    <path id="Path_58" data-name="Path 58" d="M681.549,746.354c-.641-4.044-2.354-6.888-5.089-8.453-3.3-1.887-6.971-2.255-10.521-2.61l-.7-.07a79.79,79.79,0,0,0-21.194.566,25.354,25.354,0,0,0-4.812,1.165,10.389,10.389,0,0,0-4.664,3.155c-2,2.49-2.269,5.818-2.484,8.492l-.039.474a70.765,70.765,0,0,0-.242,7.883c.034,1.17.079,2.428.185,3.706.222,2.7.713,6.166,2.545,9.049,2.037,3.206,5.3,3.874,7.922,4.1.611.05,2.273.011,5.916-.079l.74-.019,6.383,5.847a3.671,3.671,0,0,0,4.982-.039l6.488-6.13a45.722,45.722,0,0,0,5.688-.338c.31-.041.632-.07.959-.1a7.508,7.508,0,0,0,4.66-1.555c2.631-2.4,3.123-5.9,3.4-9.292A66.5,66.5,0,0,0,681.549,746.354Zm-2.863,15.5c-.239,2.909-.6,5.657-2.431,7.322a5.119,5.119,0,0,1-2.906.784c-.389.034-.773.069-1.141.119a1.55,1.55,0,0,0-.2.042c-.219.031-1.3.151-5.7.281a1.5,1.5,0,0,0-.986.409l-6.9,6.522a.659.659,0,0,1-.9.007l-6.828-6.255a1.5,1.5,0,0,0-1.013-.394h-.037l-1.345.034c-3.1.077-5.14.127-5.586.09-2.944-.252-4.58-1.039-5.647-2.717-1.48-2.329-1.892-5.331-2.086-7.686-.1-1.208-.144-2.418-.176-3.546a67.468,67.468,0,0,1,.234-7.55l.038-.48c.2-2.5.409-5.082,1.833-6.853a7.48,7.48,0,0,1,3.367-2.221,22.419,22.419,0,0,1,4.237-1.016,76.927,76.927,0,0,1,20.415-.546l.71.071c3.237.325,6.585.661,9.331,2.23,1.906,1.091,3.123,3.217,3.615,6.319A63.889,63.889,0,0,1,678.686,761.858Z" fill="#fff"/>
    <path id="Path_59" data-name="Path 59" d="M644.327,756.858h0l12.44-.034a1.5,1.5,0,0,0,0-3h0l-12.44.034a1.5,1.5,0,0,0,0,3Z" fill="#fff"/>
    <path id="Path_60" data-name="Path 60" d="M669.422,745.812H644.327a1.5,1.5,0,0,0,0,3h25.095a1.5,1.5,0,0,0,0-3Z" fill="#fff"/>
    <path id="Path_61" data-name="Path 61" d="M664.112,761.169H644.526a1.5,1.5,0,0,0,0,3h19.586a1.5,1.5,0,0,0,0-3Z" fill="#fff"/>
  </g>
</svg>
