<svg xmlns="http://www.w3.org/2000/svg" width="43.011" height="43.011" viewBox="0 0 43.011 43.011">
  <g id="alarm" transform="translate(-749.401 -736.138)">
    <path id="Path_64" data-name="Path 64" d="M770.906,736.138a21.505,21.505,0,1,0,21.506,21.506A21.529,21.529,0,0,0,770.906,736.138Zm0,40.01a18.505,18.505,0,1,1,18.506-18.5A18.525,18.525,0,0,1,770.906,776.148Z" fill="#2e2842"/>
    <path id="Path_65" data-name="Path 65" d="M770.906,744.336a1.5,1.5,0,0,0-1.5,1.5v11.3l-6.478,8.5a1.5,1.5,0,1,0,2.385,1.818l6.786-8.9a1.5,1.5,0,0,0,.307-.909V745.836A1.5,1.5,0,0,0,770.906,744.336Z" fill="#2e2842"/>
  </g>
</svg>
