<svg xmlns="http://www.w3.org/2000/svg" xmlns:xlink="http://www.w3.org/1999/xlink" width="45.554" height="45.157" viewBox="0 0 45.554 45.157">
  <defs>
    <filter id="Path_872" x="0" y="0" width="45.554" height="45.157" filterUnits="userSpaceOnUse">
      <feOffset dy="3" input="SourceAlpha"/>
      <feGaussianBlur stdDeviation="3" result="blur"/>
      <feFlood flood-color="#e4ecef" flood-opacity="0.161"/>
      <feComposite operator="in" in2="blur"/>
      <feComposite in="SourceGraphic"/>
    </filter>
  </defs>
  <g id="icon" transform="translate(-321 -26.001)">
    <g transform="matrix(1, 0, 0, 1, 321, 26)" filter="url(#Path_872)">
      <path id="Path_872-2" data-name="Path 872" d="M-.02,13.569v-.925c-.043-4.559.5-8.335,2.394-10.206C4.213.523,7.954-.031,12.526.044q.734.016,1.469,0c4.572-.076,8.313.479,10.152,2.4,1.893,1.861,2.437,5.636,2.383,10.206v.925c.043,4.572-.49,8.334-2.383,10.206-1.838,1.915-5.593,2.481-10.152,2.4q-.734-.016-1.469,0c-4.559.076-8.313-.479-10.152-2.4C.481,21.9-.063,18.139-.02,13.569Z" transform="translate(9.52 6.46)" fill="#fff" stroke="#ebeff2" stroke-width="1"/>
    </g>
    <g id="exclamation" transform="translate(203.396 39)">
      <g id="Group_905" data-name="Group 905" transform="translate(137.603 -2)">
        <path id="Path_1316" data-name="Path 1316" d="M150.235,301.5h-3.246a.823.823,0,0,0-.812.812v2.84a.823.823,0,0,0,.812.812h3.247a.822.822,0,0,0,.811-.812v-2.84a.823.823,0,0,0-.812-.812Z" transform="translate(-145.796 -288.108)" fill="#f4535b"/>
        <path id="Path_1317" data-name="Path 1317" d="M143.012.241A.76.76,0,0,0,142.448,0H138.39a.76.76,0,0,0-.564.241.747.747,0,0,0-.222.571l.355,9.738a.816.816,0,0,0,.26.571.8.8,0,0,0,.577.241h3.247a.8.8,0,0,0,.577-.241.818.818,0,0,0,.26-.571l.355-9.738A.746.746,0,0,0,143.012.241Z" transform="translate(-137.603)" fill="#f4535b"/>
      </g>
    </g>
  </g>
</svg>
