<svg xmlns="http://www.w3.org/2000/svg" width="115.784" height="149.383" viewBox="0 0 115.784 149.383">
  <g id="antenna" transform="translate(200.992 60.388)">
    <g id="Group_438" data-name="Group 438" transform="translate(-261 12)">
      <g id="Group_437" data-name="Group 437" transform="translate(60.008 -53.001)">
        <path id="Path_865" data-name="Path 865" d="M392.838.978V.967a2.222,2.222,0,0,0-3.615,2.585,53.212,53.212,0,0,1,0,61.867,2.222,2.222,0,0,0,.5,3.1l.013.009a2.222,2.222,0,0,0,3.1-.516A57.656,57.656,0,0,0,392.838.978Z" transform="translate(-288.034 -0.038)" fill="#2e4057"/>
        <path id="Path_866" data-name="Path 866" d="M39.85.413h0a2.222,2.222,0,0,0-3.1.516,57.656,57.656,0,0,0,0,67.035,2.222,2.222,0,0,0,3.615-2.584,53.212,53.212,0,0,1,0-61.867A2.222,2.222,0,0,0,39.85.413Z" transform="translate(-26.008 0.001)" fill="#2e4057"/>
        <path id="Path_867" data-name="Path 867" d="M94.45,31.386a2.222,2.222,0,0,0-.4-3.118h0a2.222,2.222,0,0,0-3.111.387,42.039,42.039,0,0,0,0,51.743,2.222,2.222,0,1,0,3.506-2.731A37.593,37.593,0,0,1,94.45,31.386Z" transform="translate(-66.477 -20.08)" fill="#2e4057"/>
        <path id="Path_868" data-name="Path 868" d="M340.5,28.251h0a2.222,2.222,0,0,0-.387,3.111,37.593,37.593,0,0,1,0,46.281,2.222,2.222,0,1,0,3.506,2.731,42.039,42.039,0,0,0,0-51.743A2.222,2.222,0,0,0,340.5,28.251Z" transform="translate(-252.526 -20.063)" fill="#2e4057"/>
        <path id="Path_869" data-name="Path 869" d="M290.648,59.519a22.138,22.138,0,0,1,0,30.4,2.222,2.222,0,0,0,.094,3.141h0a2.222,2.222,0,0,0,3.141-.1h0a26.582,26.582,0,0,0,0-36.491,2.222,2.222,0,0,0-3.261,3.019Z" transform="translate(-216.698 -40.273)" fill="#2e4057"/>
        <path id="Path_870" data-name="Path 870" d="M146.877,93.665a2.222,2.222,0,0,0,1.62-3.744,22.138,22.138,0,0,1,0-30.4,2.222,2.222,0,1,0-3.214-3.07l-.024.026a26.582,26.582,0,0,0,0,36.491A2.222,2.222,0,0,0,146.877,93.665Z" transform="translate(-106.9 -40.273)" fill="#2e4057"/>
        <path id="Path_871" data-name="Path 871" d="M187.711,187.714l-21.636-84.37a11.11,11.11,0,1,0-14.368,0l-21.634,84.37a2.222,2.222,0,0,0,1.6,2.706h0a2.262,2.262,0,0,0,.551.069,2.222,2.222,0,0,0,2.151-1.669l.742-2.889a2.228,2.228,0,0,0,.362-.138l41.537-21.863,6.382,24.887a2.222,2.222,0,0,0,2.155,1.671,2.252,2.252,0,0,0,.553-.069,2.222,2.222,0,0,0,1.6-2.7Zm-21.423-65.642L154.2,111.5l1.529-5.96a9.968,9.968,0,0,0,6.315,0Zm-7.4-33.8a6.666,6.666,0,1,1-6.666,6.666A6.666,6.666,0,0,1,158.89,88.274Zm-5.922,28.045,13.384,11.715L146.576,141.21Zm-16.377,63.865,7.977-31.109,27.109,12.648Zm11.264-34.478,20.916-13.946,6.9,26.927Z" transform="translate(-101.117 -60.494)" fill="#2e4057"/>
      </g>
      <ellipse id="Ellipse_3" data-name="Ellipse 3" cx="8.609" cy="8.609" rx="8.609" ry="8.609" transform="translate(60.014 29.827)" fill="#fe575f"/>
      <ellipse id="Ellipse_5" data-name="Ellipse 5" cx="8.609" cy="8.609" rx="8.609" ry="8.609" transform="translate(158.575 46.999)" fill="#3a86ff"/>
      <ellipse id="Ellipse_325" data-name="Ellipse 325" cx="6.261" cy="6.261" rx="6.261" ry="6.261" transform="translate(148.008 -72.388)" fill="#fcc810"/>
    </g>
  </g>
</svg>
