<svg xmlns="http://www.w3.org/2000/svg" width="61.105" height="59.557" viewBox="0 0 61.105 59.557">
  <g id="Back" transform="translate(-952.182 -663.164)">
    <path id="Path_77" data-name="Path 77" d="M1012.643,679.932c-.758-5.788-2.8-9.87-6.078-12.132-4.046-2.8-8.736-3.366-12.872-3.867l-.844-.1a80.582,80.582,0,0,0-25.793.833,26.8,26.8,0,0,0-5.9,1.729h0a13.037,13.037,0,0,0-5.671,4.62c-2.131,3.207-2.586,7.337-2.844,10.957-.273,3.8-.538,8.316-.431,12.971.039,1.742.094,3.769.233,5.786.263,3.886.846,8.876,3.019,13.006,2.983,5.674,8,7.017,11.516,7.533A108.019,108.019,0,0,0,982.2,722.72h.34a84.753,84.753,0,0,0,15.249-1.556c4-.725,8.1-1.835,10.988-5.014,3.11-3.426,3.691-8.453,4.021-13.311C1013.264,695.892,1013.678,687.82,1012.643,679.932Zm-3.657,22.648c-.284,4.187-.751,8.485-3.039,11.006-2.226,2.453-5.734,3.26-8.844,3.824a78.637,78.637,0,0,1-14.888,1.5,105.238,105.238,0,0,1-14.687-1.413c-4.393-.647-6.995-2.3-8.7-5.535-1.839-3.5-2.35-7.978-2.589-11.49-.132-1.937-.184-3.913-.223-5.613-.1-4.5.155-8.9.421-12.613.225-3.134.6-6.683,2.216-9.116a9.16,9.16,0,0,1,4.055-3.251,23.058,23.058,0,0,1,5.057-1.462,76.779,76.779,0,0,1,24.6-.8l.863.1c3.88.471,7.89.956,11.163,3.218,2.35,1.624,3.852,4.815,4.464,9.49C1009.851,687.969,1009.445,695.817,1008.986,702.581Z" transform="translate(0 0)" fill="#fff"/>
    <path id="Path_78" data-name="Path 78" d="M984.839,676.736a1.906,1.906,0,0,0-2.7,0l-11.327,11.325a1.909,1.909,0,0,0,0,2.7l11.327,11.326a1.907,1.907,0,0,0,2.7-2.7l-9.978-9.978,9.978-9.977A1.906,1.906,0,0,0,984.839,676.736Z" transform="translate(4.909 3.534)" fill="#fff"/>
  </g>
</svg>
