<svg xmlns="http://www.w3.org/2000/svg" width="16" height="10.077" viewBox="0 0 16 10.077">
  <path id="back" d="M10.594,8.953a.469.469,0,0,0,.563,0q3.7-4.078,3.75-4.125A.382.382,0,0,0,15,4.547a.382.382,0,0,0-.094-.281L11.156.141a.352.352,0,0,0-.562,0,.352.352,0,0,0,0,.563l3.141,3.469H.375A.331.331,0,0,0,0,4.547a.331.331,0,0,0,.375.375H13.734L10.594,8.391A.352.352,0,0,0,10.594,8.953Z" transform="translate(0.5 0.53)" fill="#6f7d93" stroke="#102054" stroke-miterlimit="10" stroke-width="1"/>
</svg>
