<svg xmlns="http://www.w3.org/2000/svg" width="15.583" height="10.791" viewBox="0 0 15.583 10.791">
  <g id="menu_1_" data-name="menu (1)" transform="translate(0.001 0)">
    <g id="Group_273" data-name="Group 273" transform="translate(0 4.766)">
      <g id="Group_272" data-name="Group 272">
        <path id="Path_374" data-name="Path 374" d="M14.925,235.318H.628a.628.628,0,1,0,0,1.257h14.3a.629.629,0,1,0,0-1.257Z" transform="translate(0 -235.318)" fill="#2e4057"/>
      </g>
    </g>
    <g id="Group_275" data-name="Group 275">
      <g id="Group_274" data-name="Group 274">
        <path id="Path_375" data-name="Path 375" d="M14.925,78.439H.628a.628.628,0,1,0,0,1.257h14.3a.629.629,0,0,0,0-1.257Z" transform="translate(0 -78.439)" fill="#2e4057"/>
      </g>
    </g>
    <g id="Group_277" data-name="Group 277" transform="translate(0 9.531)">
      <g id="Group_276" data-name="Group 276">
        <path id="Path_376" data-name="Path 376" d="M14.925,392.2H.628a.629.629,0,0,0,0,1.257h14.3a.628.628,0,0,0,0-1.257Z" transform="translate(0 -392.197)" fill="#2e4057"/>
      </g>
    </g>
  </g>
</svg>
