<svg id="Box" xmlns="http://www.w3.org/2000/svg" width="55.101" height="43.838" viewBox="0 0 55.101 43.838">
  <path id="Path_27" data-name="Path 27" d="M1017.862,244.914c-.7-4.3-2.56-7.319-5.529-8.973-3.6-2.006-7.624-2.4-11.518-2.778l-.769-.075a90.234,90.234,0,0,0-23.324.607,28.454,28.454,0,0,0-5.267,1.241h0a11.271,11.271,0,0,0-5.056,3.33c-1.971,2.391-2.393,5.468-2.633,8.166a82.014,82.014,0,0,0-.392,9.565c.036,1.29.086,2.79.211,4.267.245,2.886.782,6.595,2.787,9.665,2.683,4.11,7.136,5.077,10.252,5.446a120.953,120.953,0,0,0,13.79,1.062h.3a94.529,94.529,0,0,0,13.8-1.137c3.566-.521,7.221-1.317,9.789-3.6,2.858-2.538,3.393-6.278,3.7-9.892C1018.431,256.695,1018.811,250.744,1017.862,244.914Zm-2.751,16.658c-.266,3.155-.675,6.138-2.735,7.967-2.1,1.862-5.375,2.47-8.282,2.9a93.4,93.4,0,0,1-13.668,1.1,118.552,118.552,0,0,1-13.46-1.042c-4.089-.485-6.607-1.765-8.166-4.153-1.649-2.526-2.108-5.775-2.324-8.324-.119-1.4-.167-2.853-.2-4.1a79.5,79.5,0,0,1,.383-9.226c.21-2.368.537-4.828,1.981-6.577a8.494,8.494,0,0,1,3.8-2.45,25.788,25.788,0,0,1,4.722-1.1,87.412,87.412,0,0,1,22.59-.589l.782.077c3.6.351,7.317.713,10.388,2.424,2.156,1.2,3.527,3.525,4.077,6.907C1015.9,250.885,1015.527,256.624,1015.111,261.571Z" transform="translate(-963.352 -232.602)" fill="#fff"/>
  <path id="Path_28" data-name="Path 28" d="M1006.674,243.406l-14.819,11.684a.915.915,0,0,1-1.233,0L975.8,243.406a1.45,1.45,0,1,0-1.8,2.277l14.819,11.684a3.786,3.786,0,0,0,4.825,0l14.819-11.684a1.45,1.45,0,1,0-1.8-2.277Z" transform="translate(-963.689 -232.952)" fill="#fff"/>
</svg>
