<svg xmlns="http://www.w3.org/2000/svg" width="39.368" height="39.698" viewBox="0 0 39.368 39.698">
  <g id="Cancel_pop" transform="translate(-5.936 2.767)" opacity="0.33">
    <g id="Group_273" data-name="Group 273" transform="matrix(0.966, -0.259, 0.259, 0.966, -0.73, 9.11)">
      <g id="Group_272" data-name="Group 272" transform="translate(0 0)">
        <path id="Path_374" data-name="Path 374" d="M49.432,0H2.081a2.081,2.081,0,0,0,0,4.162H49.432a2.081,2.081,0,0,0,0-4.162Z" transform="translate(0 25.756) rotate(-30)" fill="#2e4057"/>
      </g>
    </g>
    <g id="Group_275" data-name="Group 275" transform="translate(7.946 -3.305) rotate(30)">
      <g id="Group_274" data-name="Group 274" transform="translate(0 0)">
        <path id="Path_375" data-name="Path 375" d="M49.432,0H2.081a2.081,2.081,0,0,0,0,4.162H49.432a2.081,2.081,0,0,0,0-4.162Z" transform="matrix(0.966, 0.259, -0.259, 0.966, 1.077, 0)" fill="#2e4057"/>
      </g>
    </g>
  </g>
</svg>
