<svg xmlns="http://www.w3.org/2000/svg" xmlns:xlink="http://www.w3.org/1999/xlink" width="43.985" height="16.237" viewBox="0 0 43.985 16.237">
  <defs>
    <linearGradient id="linear-gradient" x1="2.848" y1="-1.102" x2="2.885" y2="0.5" gradientUnits="objectBoundingBox">
      <stop offset="0" stop-color="#ff9429"/>
      <stop offset="1" stop-color="#ff1a1a"/>
    </linearGradient>
  </defs>
  <g id="sedan-car-model" transform="matrix(1, 0.017, -0.017, 1, 0.789, -31.872)">
    <g id="Group_886" data-name="Group 886" transform="translate(-0.001 31.876)">
      <path id="Path_1227" data-name="Path 1227" d="M13.109,52.156a3.3,3.3,0,0,0-3.3,3.3,3.207,3.207,0,0,0,.029.415,3.3,3.3,0,0,0,6.561-.134c.008-.092.014-.187.014-.282A3.3,3.3,0,0,0,13.109,52.156Zm-1.653,2.058.673.673a1.14,1.14,0,0,0-.12.29h-.949A2.039,2.039,0,0,1,11.456,54.214Zm-.4,1.535h.956a1.107,1.107,0,0,0,.12.287l-.675.674A2.066,2.066,0,0,1,11.056,55.749Zm1.767,1.76a2.057,2.057,0,0,1-.958-.4l.671-.672a1.136,1.136,0,0,0,.287.116Zm0-3.15a1.147,1.147,0,0,0-.292.122l-.673-.673a2.052,2.052,0,0,1,.964-.4Zm.572-.951a2.055,2.055,0,0,1,.964.4l-.672.673a1.147,1.147,0,0,0-.292-.122v-.95Zm0,4.1v-.952a1.128,1.128,0,0,0,.286-.117l.672.672A2.058,2.058,0,0,1,13.4,57.508Zm1.367-.8-.677-.678a1.116,1.116,0,0,0,.123-.286h.949A2.06,2.06,0,0,1,14.762,56.713Zm-.553-1.536a1.156,1.156,0,0,0-.12-.29l.674-.673a2.061,2.061,0,0,1,.4.964H14.21Z" transform="translate(-5.47 -43.189)" fill="url(#linear-gradient)"/>
      <path id="Path_1228" data-name="Path 1228" d="M75.118,52.156a3.3,3.3,0,0,0-3.3,3.3,3.208,3.208,0,0,0,.029.415,3.3,3.3,0,0,0,6.561-.134c.008-.092.014-.187.014-.282A3.3,3.3,0,0,0,75.118,52.156Zm-1.653,2.058.673.673a1.14,1.14,0,0,0-.12.29h-.949A2.044,2.044,0,0,1,73.465,54.214Zm-.4,1.535h.956a1.107,1.107,0,0,0,.12.287l-.674.674A2.048,2.048,0,0,1,73.066,55.749Zm1.767,1.76a2.057,2.057,0,0,1-.958-.4l.671-.672a1.136,1.136,0,0,0,.287.116Zm0-3.15a1.147,1.147,0,0,0-.292.122l-.673-.673a2.05,2.05,0,0,1,.964-.4Zm.572-.951a2.055,2.055,0,0,1,.964.4l-.673.673a1.116,1.116,0,0,0-.292-.122v-.95Zm0,4.1v-.952a1.128,1.128,0,0,0,.286-.117l.672.672A2.06,2.06,0,0,1,75.4,57.508Zm1.367-.8-.677-.677a1.1,1.1,0,0,0,.123-.286h.949A2.056,2.056,0,0,1,76.771,56.713Zm-.553-1.536a1.14,1.14,0,0,0-.12-.29l.673-.673a2.062,2.062,0,0,1,.4.964h-.949Z" transform="translate(-40.061 -43.189)" fill="url(#linear-gradient)"/>
      <path id="Path_1229" data-name="Path 1229" d="M42.985,39.134V36.691a.8.8,0,0,0-.674-.787,32.529,32.529,0,0,1-3.325-.65c-1.064-.328-5.174-2.068-6.6-2.4s-7.843-2.072-13.991.06c-1.04.36-5.721,2.6-8.473,3.761-.81.018-8.833,1.69-9.26,2.836a18.536,18.536,0,0,0-.64,1.994,4.7,4.7,0,0,0,.6,2.653,9.575,9.575,0,0,0,3.129.729c-.015-.083-.032-.164-.043-.248a3.8,3.8,0,0,1-.034-.5,3.965,3.965,0,1,1,7.931,0c0,.112-.008.224-.016.333a3.859,3.859,0,0,1-.129.713h.011l19.683-.4c-.009-.051-.02-.1-.027-.153a3.787,3.787,0,0,1-.034-.5,3.966,3.966,0,0,1,7.931,0c0,.008,0,.015,0,.023l.084-.007,3.365-.634a2.865,2.865,0,0,0,1.289-2.574A2.271,2.271,0,0,0,42.985,39.134ZM23.46,36.817l-7.351.225c.135-1.1-.517-1.349-.517-1.349,2.922-2.653,8.812-2.742,8.812-2.742Zm8.25-.336-6.7.225.607-3.754a15.869,15.869,0,0,1,5.44.719l.989,1.6Zm3.777-.023H33.62L31.754,33.9c1.4.557,2.52,1.106,3.188,1.453A1.041,1.041,0,0,1,35.486,36.458Z" transform="translate(0.001 -31.876)" fill="url(#linear-gradient)"/>
    </g>
  </g>
</svg>
