<svg xmlns="http://www.w3.org/2000/svg" width="48.403" height="48.809" viewBox="0 0 48.403 48.809">
  <g id="Cancel" transform="translate(-7.466 2.643)">
    <g id="Group_273" data-name="Group 273" transform="matrix(0.966, -0.259, 0.259, 0.966, 0.417, 27.69)">
      <g id="Group_272" data-name="Group 272" transform="translate(0 0)">
        <path id="Path_374" data-name="Path 374" d="M60.778,235.318H2.558a2.558,2.558,0,0,0,0,5.117H60.778a2.558,2.558,0,0,0,0-5.117Z" transform="translate(-114.696 -187.615) rotate(-30)" fill="#fff"/>
      </g>
    </g>
    <g id="Group_275" data-name="Group 275" transform="translate(5.522 3.509) rotate(30)">
      <g id="Group_274" data-name="Group 274">
        <path id="Path_375" data-name="Path 375" d="M60.778,78.439H2.558a2.558,2.558,0,0,0,0,5.117H60.778a2.558,2.558,0,0,0,0-5.117Z" transform="matrix(0.966, 0.259, -0.259, 0.966, 22.043, -83.875)" fill="#fff"/>
      </g>
    </g>
  </g>
</svg>
