<svg id="credit-card_2_" data-name="credit-card (2)" xmlns="http://www.w3.org/2000/svg" width="19.41" height="37.607" viewBox="0 0 19.41 37.607">
  <path id="Path_1349" data-name="Path 1349" d="M17.59,7.885H15.164V.607A.607.607,0,0,0,14.557,0h-9.7a.607.607,0,0,0-.607.607V7.885H1.82A1.82,1.82,0,0,0,0,9.7V35.787a1.82,1.82,0,0,0,1.82,1.82H17.59a1.82,1.82,0,0,0,1.82-1.82V9.7A1.82,1.82,0,0,0,17.59,7.885ZM4.852,12.738h9.7a.607.607,0,0,0,.607-.607V10.918h.607v2.426H3.639V10.918h.607v1.213A.607.607,0,0,0,4.852,12.738ZM5.459,1.213h8.492V11.525H5.459ZM18.2,35.787a.607.607,0,0,1-.607.607H1.82a.607.607,0,0,1-.607-.607V9.7A.607.607,0,0,1,1.82,9.1H4.246V9.7H3.033a.607.607,0,0,0-.607.607v3.639a.607.607,0,0,0,.607.607H16.377a.607.607,0,0,0,.607-.607V10.311a.607.607,0,0,0-.607-.607H15.164V9.1H17.59A.607.607,0,0,1,18.2,9.7Zm0,0" fill="#fff"/>
  <path id="Path_1350" data-name="Path 1350" d="M45.951,200H32.607a.607.607,0,0,0-.607.607v7.279a.607.607,0,0,0,.607.607H45.951a.607.607,0,0,0,.607-.607v-7.279A.607.607,0,0,0,45.951,200Zm-.607,7.279H33.213v-6.066H45.344Zm0,0" transform="translate(-29.574 -184.836)" fill="#fff"/>
  <path id="Path_1351" data-name="Path 1351" d="M40.607,323.639h2.426a.607.607,0,0,0,.607-.607v-2.426a.607.607,0,0,0-.607-.607H40.607a.607.607,0,0,0-.607.607v2.426A.607.607,0,0,0,40.607,323.639Zm.607-2.426h1.213v1.213H41.213Zm0,0" transform="translate(-36.967 -295.738)" fill="#fff"/>
  <path id="Path_1352" data-name="Path 1352" d="M104.607,323.639h2.426a.607.607,0,0,0,.607-.607v-2.426a.607.607,0,0,0-.607-.607h-2.426a.607.607,0,0,0-.607.607v2.426A.607.607,0,0,0,104.607,323.639Zm.607-2.426h1.213v1.213h-1.213Zm0,0" transform="translate(-96.115 -295.738)" fill="#fff"/>
  <path id="Path_1353" data-name="Path 1353" d="M171.033,320h-2.426a.607.607,0,0,0-.607.607v2.426a.607.607,0,0,0,.607.607h2.426a.607.607,0,0,0,.607-.607v-2.426A.607.607,0,0,0,171.033,320Zm-.607,2.426h-1.213v-1.213h1.213Zm0,0" transform="translate(-155.262 -295.738)" fill="#fff"/>
  <path id="Path_1354" data-name="Path 1354" d="M40,379.033a.607.607,0,0,0,.607.607h2.426a.607.607,0,0,0,.607-.607v-2.426a.607.607,0,0,0-.607-.607H40.607a.607.607,0,0,0-.607.607Zm1.213-1.82h1.213v1.213H41.213Zm0,0" transform="translate(-36.967 -347.492)" fill="#fff"/>
  <path id="Path_1355" data-name="Path 1355" d="M107.639,376.607a.607.607,0,0,0-.607-.607h-2.426a.607.607,0,0,0-.607.607v2.426a.607.607,0,0,0,.607.607h2.426a.607.607,0,0,0,.607-.607Zm-1.213,1.82h-1.213v-1.213h1.213Zm0,0" transform="translate(-96.115 -347.492)" fill="#fff"/>
  <path id="Path_1356" data-name="Path 1356" d="M171.033,376h-2.426a.607.607,0,0,0-.607.607v2.426a.607.607,0,0,0,.607.607h2.426a.607.607,0,0,0,.607-.607v-2.426A.607.607,0,0,0,171.033,376Zm-.607,2.426h-1.213v-1.213h1.213Zm0,0" transform="translate(-155.262 -347.492)" fill="#fff"/>
  <path id="Path_1357" data-name="Path 1357" d="M39.885,448H32.607a.607.607,0,1,0,0,1.213h7.279a.607.607,0,1,0,0-1.213Zm0,0" transform="translate(-29.574 -414.033)" fill="#fff"/>
  <path id="Path_1358" data-name="Path 1358" d="M153.82,448h-1.213a.607.607,0,1,0,0,1.213h1.213a.607.607,0,1,0,0-1.213Zm0,0" transform="translate(-140.475 -414.033)" fill="#fff"/>
</svg>
