<svg xmlns="http://www.w3.org/2000/svg" width="85.631" height="68.118" viewBox="0 0 85.631 68.118">
  <g id="credit_icn" transform="translate(-840.918 -535.113)">
    <path id="Path_43" data-name="Path 43" d="M925.631,554.24c-1.089-6.68-3.975-11.37-8.586-13.938-5.593-3.116-11.848-3.725-17.9-4.316l-1.2-.118a140.151,140.151,0,0,0-36.26.944,44.03,44.03,0,0,0-8.183,1.93,17.506,17.506,0,0,0-7.852,5.171c-3.065,3.714-3.717,8.5-4.088,12.685a127.021,127.021,0,0,0-.612,14.869c.057,2,.133,4.318.328,6.635.38,4.483,1.215,10.242,4.33,15.017,4.166,6.382,11.085,7.885,15.926,8.458a188.454,188.454,0,0,0,21.438,1.653h.469a147.161,147.161,0,0,0,21.45-1.765c5.545-.812,11.224-2.049,15.21-5.587,4.439-3.942,5.271-9.754,5.743-15.368C926.516,572.553,927.107,563.3,925.631,554.24ZM849.1,546.759a13.208,13.208,0,0,1,5.923-3.813v0a39.933,39.933,0,0,1,7.341-1.716,138.37,138.37,0,0,1,21.122-1.647,135.4,135.4,0,0,1,14.008.731l1.218.121c5.594.545,11.377,1.111,16.158,3.773,3.214,1.79,5.3,5.2,6.221,10.111H846.307A14.777,14.777,0,0,1,849.1,546.759Zm72.293,33.38c-.411,4.909-1.049,9.55-4.257,12.4-3.263,2.9-8.363,3.846-12.889,4.507a140.977,140.977,0,0,1-21.252,1.719,184.785,184.785,0,0,1-20.933-1.622c-6.364-.755-10.284-2.748-12.71-6.464-2.569-3.938-3.283-8.99-3.618-12.952-.188-2.2-.259-4.449-.316-6.384a114.076,114.076,0,0,1,.45-12.557h75.839A118.034,118.034,0,0,1,921.392,580.139Z" fill="#fff"/>
    <path id="Path_44" data-name="Path 44" d="M867.294,567.342H854.183a2.234,2.234,0,0,0,0,4.468h13.111a2.234,2.234,0,0,0,0-4.468Z" transform="translate(5.398 15.772)" fill="#fff"/>
    <rect id="Rectangle_1" data-name="Rectangle 1" width="80.427" height="4.468" transform="translate(844.019 563.243)" fill="#fff"/>
  </g>
</svg>
