<svg xmlns="http://www.w3.org/2000/svg" width="48.913" height="38.909" viewBox="0 0 48.913 38.909">
  <g id="credit_icn" transform="translate(-840.918 -535.113)">
    <path id="Path_43" data-name="Path 43" d="M889.306,546.038c-.622-3.816-2.271-6.495-4.9-7.961-3.194-1.78-6.768-2.128-10.223-2.466l-.685-.067a80.058,80.058,0,0,0-20.712.539,25.153,25.153,0,0,0-4.674,1.1,10,10,0,0,0-4.485,2.954c-1.751,2.122-2.123,4.853-2.335,7.246a72.563,72.563,0,0,0-.35,8.493c.032,1.14.076,2.466.187,3.79a18.493,18.493,0,0,0,2.473,8.578c2.38,3.646,6.332,4.5,9.1,4.831a107.647,107.647,0,0,0,12.246.944h.268a84.062,84.062,0,0,0,12.252-1.008c3.167-.464,6.411-1.171,8.688-3.191,2.535-2.252,3.011-5.571,3.281-8.778A61.665,61.665,0,0,0,889.306,546.038Zm-43.715-4.273a7.544,7.544,0,0,1,3.383-2.178h0a22.814,22.814,0,0,1,4.193-.98,79.039,79.039,0,0,1,12.065-.941,77.326,77.326,0,0,1,8,.418l.7.069c3.2.311,6.5.635,9.23,2.155,1.836,1.023,3.025,2.972,3.554,5.776H844A8.441,8.441,0,0,1,845.591,541.765Zm41.294,19.067c-.235,2.8-.6,5.455-2.432,7.082-1.864,1.655-4.777,2.2-7.362,2.574a80.524,80.524,0,0,1-12.139.982A105.559,105.559,0,0,1,853,570.544c-3.635-.431-5.874-1.57-7.26-3.692a16.169,16.169,0,0,1-2.066-7.4c-.107-1.257-.148-2.541-.18-3.646a65.179,65.179,0,0,1,.257-7.173h43.32A67.421,67.421,0,0,1,886.885,560.832Z" transform="translate(0)" fill="#2e4057"/>
    <path id="Path_44" data-name="Path 44" d="M860.714,567.342h-7.489a1.276,1.276,0,0,0,0,2.552h7.489a1.276,1.276,0,1,0,0-2.552Z" transform="translate(-1.646 -4.81)" fill="#2e4057"/>
    <rect id="Rectangle_1" data-name="Rectangle 1" width="45.94" height="2.552" transform="translate(842.689 551.181)" fill="#2e4057"/>
  </g>
</svg>
