<svg xmlns="http://www.w3.org/2000/svg" width="112.548" height="115.649" viewBox="0 0 112.548 115.649">
  <g id="cup" transform="translate(-510.118 -673.586)">
    <path id="Path_6" data-name="Path 6" d="M589.787,728.525H577.818v-3.439c0-6.656-5.763-12.073-12.846-12.073h-18.61c-7.085,0-12.849,5.417-12.849,12.073v3.439H521.544a3.54,3.54,0,0,0,0,7.081h68.243a3.54,3.54,0,0,0,0-7.081Zm-49.193-3.439c0-2.707,2.641-4.992,5.768-4.992h18.61c3.127,0,5.766,2.285,5.766,4.992v3.439H540.594Z" transform="translate(10.726 53.63)" fill="#fff"/>
    <path id="Path_7" data-name="Path 7" d="M606.718,685.994h-3.075a15.964,15.964,0,0,0-15.537-12.407H544.678a15.968,15.968,0,0,0-15.54,12.407h-3.071a15.966,15.966,0,0,0-15.95,15.948,22.181,22.181,0,0,0,19.906,22.037,37.711,37.711,0,0,0,32.828,27.855v6.493a3.54,3.54,0,0,0,7.081,0v-6.493a37.713,37.713,0,0,0,32.828-27.855,22.181,22.181,0,0,0,19.906-22.037A15.967,15.967,0,0,0,606.718,685.994ZM517.2,701.941a8.878,8.878,0,0,1,8.87-8.867h2.662V715.3a3.5,3.5,0,0,0,.087.76c.007.179.016.361.026.54A15.088,15.088,0,0,1,517.2,701.941Zm49.193,42.989a30.614,30.614,0,0,1-30.581-30.581V689.534a8.876,8.876,0,0,1,8.867-8.867h43.427a8.878,8.878,0,0,1,8.867,8.867v24.815A30.616,30.616,0,0,1,566.392,744.93Zm37.548-28.325c.009-.179.019-.359.026-.54a3.5,3.5,0,0,0,.088-.76V693.074h2.664a8.878,8.878,0,0,1,8.867,8.867A15.088,15.088,0,0,1,603.94,716.605Z" transform="translate(0 0)" fill="#fff"/>
  </g>
</svg>
