<svg xmlns="http://www.w3.org/2000/svg" width="27.624" height="36.686" viewBox="0 0 27.624 36.686">
  <path id="down_arrow" d="M555.631,647.4a1.729,1.729,0,0,0,2.449-2.443L546.01,632.866c-.009-.009-.02-.015-.029-.024a1.835,1.835,0,0,0-.232-.19c-.027-.017-.057-.029-.083-.045a1.65,1.65,0,0,0-.213-.114c-.044-.018-.09-.028-.135-.043a1.439,1.439,0,0,0-.53-.092h0a1.353,1.353,0,0,0-.516.088c-.05.016-.1.026-.149.046s-.119.062-.178.095c-.039.023-.082.039-.119.065a1.8,1.8,0,0,0-.256.21l0,0h0l-12.095,12.069a1.729,1.729,0,1,0,2.443,2.448l9.14-9.121-.03,29.052a1.729,1.729,0,0,0,1.727,1.732h0a1.73,1.73,0,0,0,1.729-1.727l.03-29.053Z" transform="translate(558.585 669.044) rotate(180)" fill="#fe575f"/>
</svg>
