<svg xmlns="http://www.w3.org/2000/svg" width="43.01" height="49.383" viewBox="0 0 43.01 49.383">
  <g id="engheza" transform="translate(-863.374 -732.952)">
    <path id="Path_13" data-name="Path 13" d="M884.879,739.324a21.506,21.506,0,1,0,21.5,21.506A21.53,21.53,0,0,0,884.879,739.324Zm0,40.011a18.506,18.506,0,1,1,18.5-18.505A18.526,18.526,0,0,1,884.879,779.335Z" fill="#2e4057"/>
    <path id="Path_14" data-name="Path 14" d="M895.446,766.527l-9.067-6.469V749.022a1.5,1.5,0,0,0-3,0V760.83a1.5,1.5,0,0,0,.629,1.221l9.7,6.918a1.5,1.5,0,1,0,1.742-2.442Z" fill="#2e4057"/>
    <path id="Path_15" data-name="Path 15" d="M880.083,735.952h9.592a1.5,1.5,0,0,0,0-3h-9.592a1.5,1.5,0,0,0,0,3Z" fill="#2e4057"/>
  </g>
</svg>
