<svg xmlns="http://www.w3.org/2000/svg" width="52.904" height="38.537" viewBox="0 0 52.904 38.537">
  <g id="Exit" transform="translate(-1075.443 -616.333)">
    <path id="Path_43" data-name="Path 43" d="M1132.82,638.2c.01-.016.017-.033.027-.049a1.237,1.237,0,0,0,.09-.169c.01-.023.014-.048.023-.073a1.329,1.329,0,0,0,.05-.164,1.251,1.251,0,0,0,0-.5,1.4,1.4,0,0,0-.05-.166c-.008-.023-.013-.048-.023-.071a1.249,1.249,0,0,0-.091-.172c-.009-.015-.015-.031-.025-.047a1.237,1.237,0,0,0-.158-.192l-7.514-7.515a1.27,1.27,0,0,0-1.8,1.8l5.346,5.347h-21.355a1.27,1.27,0,1,0,0,2.541H1128.7l-5.346,5.345a1.27,1.27,0,0,0,1.8,1.8l7.514-7.514A1.237,1.237,0,0,0,1132.82,638.2Z" transform="translate(-4.689 -1.895)" fill="#fff"/>
    <path id="Path_44" data-name="Path 44" d="M1113.478,640.641a1.254,1.254,0,0,0-1.353,1.182c-.183,2.7-.484,5.466-1.953,7.084-1.43,1.574-3.687,2.094-5.69,2.457a53.181,53.181,0,0,1-9.606.965,67.791,67.791,0,0,1-9.479-.912c-2.824-.415-4.495-1.478-5.586-3.554a19.225,19.225,0,0,1-1.668-7.4c-.086-1.244-.12-2.522-.145-3.622-.066-2.906.1-5.746.272-8.141.145-2.021.386-4.307,1.426-5.869a5.875,5.875,0,0,1,2.6-2.086,14.945,14.945,0,0,1,3.258-.942,49.591,49.591,0,0,1,15.874-.514l.561.069c2.5.3,5.084.617,7.188,2.071,1.508,1.042,2.472,3.1,2.867,6.1a1.27,1.27,0,1,0,2.519-.331c-.492-3.748-1.818-6.393-3.941-7.861-2.62-1.812-5.652-2.178-8.328-2.5l-.548-.066a52.1,52.1,0,0,0-16.668.538,17.323,17.323,0,0,0-3.819,1.119,8.453,8.453,0,0,0-3.678,3c-1.382,2.078-1.677,4.751-1.845,7.095-.175,2.454-.346,5.37-.278,8.38.026,1.128.061,2.44.15,3.737a21.5,21.5,0,0,0,1.954,8.414,9.318,9.318,0,0,0,7.466,4.886,70.033,70.033,0,0,0,9.835.938h.221a54.686,54.686,0,0,0,9.851-1.007c2.591-.468,5.247-1.187,7.118-3.248,2.016-2.221,2.393-5.476,2.607-8.62A1.271,1.271,0,0,0,1113.478,640.641Z" fill="#fff"/>
  </g>
</svg>
