<svg xmlns="http://www.w3.org/2000/svg" width="161.224" height="141.805" viewBox="0 0 161.224 141.805">
  <g id="history_ticket" data-name="history ticket" transform="translate(21.046 23.538)">
    <path id="Path_837" data-name="Path 837" d="M123.529,201.456a2.311,2.311,0,1,0-1.633-.677A2.327,2.327,0,0,0,123.529,201.456Zm0,0" transform="translate(-93.218 -151.369)" fill="#2e4057"/>
    <path id="Path_838" data-name="Path 838" d="M261.336,201.341a2.313,2.313,0,1,0,.675,1.633A2.331,2.331,0,0,0,261.336,201.341Zm0,0" transform="translate(-197.935 -154.313)" fill="#2e4057"/>
    <path id="Path_839" data-name="Path 839" d="M294.7,170.284a2.31,2.31,0,1,0-1.635-.677A2.327,2.327,0,0,0,294.7,170.284Zm0,0" transform="translate(-224.85 -127.397)" fill="#2e4057"/>
    <path id="Path_840" data-name="Path 840" d="M111.338,56.823h-6.445l11.346-11.346a6.93,6.93,0,0,0,0-9.8L105.948,25.386a2.311,2.311,0,0,0-3.266,0,6.93,6.93,0,0,1-9.8-9.8,2.309,2.309,0,0,0,0-3.266L82.592,2.03a6.928,6.928,0,0,0-9.8,0L34.64,40.181a2.31,2.31,0,1,0,3.267,3.266L76.058,5.3a2.309,2.309,0,0,1,3.266,0l8.82,8.819a11.555,11.555,0,0,0,16.009,16.009l8.819,8.819a2.312,2.312,0,0,1,0,3.266L98.36,56.823H88.233l7.589-7.589a2.311,2.311,0,0,0,0-3.266L72.3,22.447a2.31,2.31,0,0,0-3.267,0L34.658,56.823H6.93A6.937,6.937,0,0,0,0,63.753V78.305a2.31,2.31,0,0,0,2.31,2.31,6.93,6.93,0,0,1,0,13.859A2.31,2.31,0,0,0,0,96.784v14.552a6.938,6.938,0,0,0,6.93,6.93H111.339a6.938,6.938,0,0,0,6.93-6.93V96.784a2.31,2.31,0,0,0-2.31-2.31,6.93,6.93,0,0,1,0-13.859,2.31,2.31,0,0,0,2.31-2.31V63.753a6.937,6.937,0,0,0-6.93-6.93ZM70.668,27.346,90.922,47.6,81.7,56.823H72.553l6.772-6.773a2.31,2.31,0,0,0-3.266-3.266L66.019,56.822H41.192Zm42.981,48.881a11.551,11.551,0,0,0,0,22.635v12.474a2.313,2.313,0,0,1-2.31,2.31H6.93a2.313,2.313,0,0,1-2.31-2.31V98.863a11.551,11.551,0,0,0,0-22.635V63.753a2.312,2.312,0,0,1,2.31-2.31H111.338a2.312,2.312,0,0,1,2.31,2.31Zm0,0" transform="translate(0)" fill="#2e4057"/>
    <path id="Path_841" data-name="Path 841" d="M200.443,348.939a2.309,2.309,0,1,0-1.633.677A2.33,2.33,0,0,0,200.443,348.939Zm0,0" transform="translate(-151.109 -265.305)" fill="#2e4057"/>
    <path id="Path_842" data-name="Path 842" d="M299.443,348.939a2.309,2.309,0,1,0-1.633.677A2.33,2.33,0,0,0,299.443,348.939Zm0,0" transform="translate(-227.241 -265.305)" fill="#2e4057"/>
    <path id="Path_843" data-name="Path 843" d="M249.943,348.939a2.309,2.309,0,1,0-1.633.677A2.33,2.33,0,0,0,249.943,348.939Zm0,0" transform="translate(-189.175 -265.305)" fill="#2e4057"/>
    <path id="Path_844" data-name="Path 844" d="M149.31,349.616a2.311,2.311,0,1,0-1.633-.677A2.328,2.328,0,0,0,149.31,349.616Zm0,0" transform="translate(-113.044 -265.305)" fill="#2e4057"/>
    <path id="Path_845" data-name="Path 845" d="M348.943,348.939a2.309,2.309,0,1,0-1.633.677A2.33,2.33,0,0,0,348.943,348.939Zm0,0" transform="translate(-265.307 -265.305)" fill="#2e4057"/>
    <path id="Path_846" data-name="Path 846" d="M149.31,397.616h45.736a2.31,2.31,0,1,0,0-4.62H149.31a2.31,2.31,0,0,0,0,4.62Zm0,0" transform="translate(-113.044 -302.217)" fill="#2e4057"/>
    <path id="Path_847" data-name="Path 847" d="M185.63,441a2.311,2.311,0,1,0,1.633.677A2.328,2.328,0,0,0,185.63,441Zm0,0" transform="translate(-140.974 -339.13)" fill="#2e4057"/>
    <path id="Path_848" data-name="Path 848" d="M166.531,297H96.31a2.31,2.31,0,0,0-2.31,2.31v33.263a2.31,2.31,0,0,0,2.31,2.31h9.622a2.31,2.31,0,0,0,0-4.62H98.62V301.616h65.6v28.643h-37.5a2.31,2.31,0,0,0,0,4.62h39.81a2.31,2.31,0,0,0,2.31-2.31V299.306A2.31,2.31,0,0,0,166.531,297Zm0,0" transform="translate(-72.286 -228.392)" fill="#2e4057"/>
    <ellipse id="Ellipse_3" data-name="Ellipse 3" cx="8.609" cy="8.609" rx="8.609" ry="8.609" transform="translate(122.96 20.29)" fill="#fe575f"/>
    <ellipse id="Ellipse_5" data-name="Ellipse 5" cx="8.609" cy="8.609" rx="8.609" ry="8.609" transform="translate(16.52 -23.538)" fill="#3a86ff"/>
    <ellipse id="Ellipse_325" data-name="Ellipse 325" cx="6.261" cy="6.261" rx="6.261" ry="6.261" transform="translate(-21.046 75.075)" fill="#fcc810"/>
  </g>
</svg>
