<svg id="menu" xmlns="http://www.w3.org/2000/svg" width="63.336" height="43.93" viewBox="0 0 63.336 43.93">
  <g id="Group_273" data-name="Group 273" transform="translate(0 19.406)">
    <g id="Group_272" data-name="Group 272" transform="translate(0 0)">
      <path id="Path_374" data-name="Path 374" d="M60.778,235.318H2.558a2.558,2.558,0,0,0,0,5.117H60.778a2.558,2.558,0,0,0,0-5.117Z" transform="translate(0 -235.318)" fill="#fff"/>
    </g>
  </g>
  <g id="Group_275" data-name="Group 275" transform="translate(0 0)">
    <g id="Group_274" data-name="Group 274">
      <path id="Path_375" data-name="Path 375" d="M60.778,78.439H2.558a2.558,2.558,0,0,0,0,5.117H60.778a2.558,2.558,0,0,0,0-5.117Z" transform="translate(0 -78.439)" fill="#fff"/>
    </g>
  </g>
  <g id="Group_277" data-name="Group 277" transform="translate(0 38.813)">
    <g id="Group_276" data-name="Group 276">
      <path id="Path_376" data-name="Path 376" d="M60.778,392.2H2.558a2.558,2.558,0,0,0,0,5.117H60.778a2.558,2.558,0,0,0,0-5.117Z" transform="translate(0 -392.197)" fill="#fff"/>
    </g>
  </g>
</svg>
