<svg xmlns="http://www.w3.org/2000/svg" xmlns:xlink="http://www.w3.org/1999/xlink" width="1129.106" height="676.743" viewBox="0 0 1129.106 676.743">
  <defs>
    <clipPath id="clip-path">
      <rect width="1129.106" height="676.743" fill="none"/>
    </clipPath>
    <linearGradient id="linear-gradient" y1="0.5" x2="1" y2="0.485" gradientUnits="objectBoundingBox">
      <stop offset="0" stop-color="#00bbce"/>
      <stop offset="1" stop-color="#008fd4"/>
    </linearGradient>
    <filter id="Subtraction_7" x="0" y="0" width="1129.106" height="676.743" filterUnits="userSpaceOnUse">
      <feOffset dy="10" input="SourceAlpha"/>
      <feGaussianBlur stdDeviation="20" result="blur"/>
      <feFlood flood-color="#4d9bbf" flood-opacity="0.6"/>
      <feComposite operator="in" in2="blur"/>
      <feComposite in="SourceGraphic"/>
    </filter>
  </defs>
  <g id="milad_ticket" transform="translate(0 0)" clip-path="url(#clip-path)">
    <g transform="matrix(1, 0, 0, 1, 0, 0)" filter="url(#Subtraction_7)">
      <path id="Subtraction_7-2" data-name="Subtraction 7" d="M954.673,555.743H941.351a9.085,9.085,0,1,0-17.558,0H911.435a9.085,9.085,0,1,0-17.558,0H880.554a9.085,9.085,0,1,0-17.558,0H849.953a9.085,9.085,0,1,0-17.559,0H820.317a9.085,9.085,0,1,0-17.559,0H789.842a9.085,9.085,0,1,0-17.558,0H759.241a9.085,9.085,0,1,0-17.559,0H728.641a9.085,9.085,0,1,0-17.559,0H698.039a9.085,9.085,0,1,0-17.558,0H667.438a9.085,9.085,0,1,0-17.559,0H636.837a9.085,9.085,0,1,0-17.558,0H606.236a9.085,9.085,0,1,0-17.559,0H575.635a9.085,9.085,0,1,0-17.559,0H545.033a9.085,9.085,0,1,0-17.558,0H514.432a9.085,9.085,0,1,0-17.558,0H483.726a9.191,9.191,0,0,0,.1-1.379,9.085,9.085,0,1,0-18.169,0,9.218,9.218,0,0,0,.1,1.379h-12.64a9.191,9.191,0,0,0,.1-1.379,9.085,9.085,0,0,0-18.169,0,9.19,9.19,0,0,0,.1,1.379h-12.64a9.191,9.191,0,0,0,.1-1.379,9.085,9.085,0,0,0-18.17,0,9.19,9.19,0,0,0,.1,1.379H391.923a9.191,9.191,0,0,0,.1-1.379,9.085,9.085,0,0,0-18.17,0,9.19,9.19,0,0,0,.1,1.379H362.286a9.209,9.209,0,0,0,.1-1.379,9.085,9.085,0,0,0-18.169,0,9.19,9.19,0,0,0,.1,1.379h-13.6a9.2,9.2,0,0,0,.1-1.379,9.085,9.085,0,0,0-18.169,0,9.194,9.194,0,0,0,.1,1.379H300.12a9.191,9.191,0,0,0,.1-1.379,9.085,9.085,0,0,0-18.169,0,9.19,9.19,0,0,0,.1,1.379H269.518a9.191,9.191,0,0,0,.1-1.379,9.085,9.085,0,1,0-18.169,0,9.19,9.19,0,0,0,.1,1.379H237.645a9.188,9.188,0,0,0,.1-1.379,9.085,9.085,0,1,0-18.169,0,9.19,9.19,0,0,0,.1,1.379h-12.64a9.193,9.193,0,0,0,.1-1.379,9.085,9.085,0,1,0-18.169,0,9.19,9.19,0,0,0,.1,1.379h-12.64a9.193,9.193,0,0,0,.1-1.379,9.085,9.085,0,1,0-18.169,0,9.22,9.22,0,0,0,.1,1.379h-12.64a9.193,9.193,0,0,0,.1-1.379,9.085,9.085,0,0,0-18.169,0,9.19,9.19,0,0,0,.1,1.379H116.207a9.193,9.193,0,0,0,.1-1.379,9.085,9.085,0,0,0-18.17,0,9.208,9.208,0,0,0,.1,1.379H84.64a9.192,9.192,0,0,0,.1-1.379,9.085,9.085,0,1,0-18.169,0,9.218,9.218,0,0,0,.1,1.379H54.039a9.192,9.192,0,0,0,.1-1.379,9.085,9.085,0,1,0-18.169,0,9.219,9.219,0,0,0,.1,1.379H25a24.98,24.98,0,0,1-25-25V404.018a28.95,28.95,0,0,0,17.476-9.673,28.853,28.853,0,0,0,5.178-8.659,28.838,28.838,0,0,0,1.88-10.284,28.84,28.84,0,0,0-1.88-10.284,28.85,28.85,0,0,0-5.178-8.659A28.951,28.951,0,0,0,0,346.786V25A24.98,24.98,0,0,1,25,0H983.106a24.98,24.98,0,0,1,25,25V346.574a28.953,28.953,0,0,0,0,57.657V530.742a24.979,24.979,0,0,1-25,25H972.232a9.085,9.085,0,1,0-17.559,0Z" transform="translate(60.5 50.5)" stroke="rgba(0,0,0,0)" stroke-width="1" fill="url(#linear-gradient)"/>
    </g>
    <line id="Line_10" data-name="Line 10" x2="910.015" transform="translate(108.677 426.385)" fill="none" stroke="#fff" stroke-width="1" stroke-dasharray="20"/>
  </g>
</svg>
