<svg xmlns="http://www.w3.org/2000/svg" width="50.968" height="55.91" viewBox="0 0 50.968 55.91">
  <g id="phone-book" transform="translate(-16.82 0)">
    <g id="Group_443" data-name="Group 443" transform="translate(37.571 11.066)">
      <g id="Group_442" data-name="Group 442">
        <path id="Path_891" data-name="Path 891" d="M165.109,75.32a7.052,7.052,0,1,0,7.058,7.046A7.052,7.052,0,0,0,165.109,75.32Zm3.807,10.827a5.365,5.365,0,1,1,0-7.588A5.365,5.365,0,0,1,168.917,86.147Z" transform="translate(-158.063 -75.32)" fill="#909aa6"/>
      </g>
    </g>
    <g id="Group_445" data-name="Group 445" transform="translate(31.247 27.274)">
      <g id="Group_444" data-name="Group 444">
        <path id="Path_892" data-name="Path 892" d="M132.38,185.64h-7.957a9.4,9.4,0,0,0-9.4,9.4v5.389a.852.852,0,0,0,.852.852H140.93a.852.852,0,0,0,.852-.852v-5.389A9.4,9.4,0,0,0,132.38,185.64Zm7.7,13.945H116.73v-4.543a7.722,7.722,0,0,1,7.7-7.7h7.951a7.722,7.722,0,0,1,7.7,7.7Z" transform="translate(-115.02 -185.64)" fill="#909aa6"/>
      </g>
    </g>
    <g id="Group_447" data-name="Group 447" transform="translate(16.82)">
      <g id="Group_446" data-name="Group 446">
        <path id="Path_893" data-name="Path 893" d="M66.689,1.1A3.732,3.732,0,0,0,64.051,0H25.212a3.749,3.749,0,0,0-3.743,3.743V8.5h-1.44a3.214,3.214,0,0,0-3.209,3.209v.212a3.214,3.214,0,0,0,3.209,3.209h1.428V24.67H20.029a3.214,3.214,0,0,0-3.209,3.209v.212A3.214,3.214,0,0,0,20.029,31.3h1.428v9.538H20.029a3.214,3.214,0,0,0-3.209,3.209v.212a3.215,3.215,0,0,0,3.209,3.215h1.428v4.7a3.752,3.752,0,0,0,3.738,3.738h38.85a3.749,3.749,0,0,0,3.743-3.743V3.738A3.725,3.725,0,0,0,66.689,1.1ZM20.029,13.369a1.446,1.446,0,0,1-1.446-1.446v-.212a1.446,1.446,0,0,1,1.44-1.452H24.5a1.446,1.446,0,0,1,1.446,1.446v.212A1.446,1.446,0,0,1,24.5,13.363Zm0,16.173A1.446,1.446,0,0,1,18.583,28.1v-.212a1.446,1.446,0,0,1,1.44-1.452H24.5a1.446,1.446,0,0,1,1.446,1.446v.212A1.446,1.446,0,0,1,24.5,29.536Zm0,16.167a1.446,1.446,0,0,1-1.446-1.446v-.212a1.446,1.446,0,0,1,1.44-1.452H24.5a1.446,1.446,0,0,1,1.446,1.446v.212A1.446,1.446,0,0,1,24.5,45.7Zm46.044,6.464a2.051,2.051,0,0,1-2.039,2.039H25.212a2.007,2.007,0,0,1-2.027-2.027v-4.7H24.53a3.214,3.214,0,0,0,3.209-3.209v-.212a3.214,3.214,0,0,0-3.209-3.209H23.167V31.3h1.346a3.214,3.214,0,0,0,3.209-3.209v-.212a3.214,3.214,0,0,0-3.209-3.209H23.167V15.132h1.346a3.214,3.214,0,0,0,3.209-3.209v-.212A3.214,3.214,0,0,0,24.513,8.5H23.167V3.743A2.051,2.051,0,0,1,25.206,1.7H64.045a2.045,2.045,0,0,1,2.039,2.039Z" transform="translate(-16.82)" fill="#909aa6"/>
      </g>
    </g>
  </g>
</svg>
