<svg xmlns="http://www.w3.org/2000/svg" width="51.674" height="51.674" viewBox="0 0 51.674 51.674">
  <g id="plus-black-symbol" transform="translate(71 22)">
    <path id="Path_577" data-name="Path 577" d="M50.646,19.818a3.4,3.4,0,0,0-2.5-1.028H32.883V3.523a3.4,3.4,0,0,0-1.028-2.5A3.4,3.4,0,0,0,29.359,0H22.313a3.4,3.4,0,0,0-2.5,1.027,3.4,3.4,0,0,0-1.028,2.5V18.791H3.523a3.4,3.4,0,0,0-2.5,1.028A3.4,3.4,0,0,0,0,22.314V29.36a3.394,3.394,0,0,0,1.027,2.5,3.4,3.4,0,0,0,2.5,1.028H18.79V48.151a3.507,3.507,0,0,0,3.523,3.523H29.36a3.507,3.507,0,0,0,3.524-3.523V32.883H48.15a3.508,3.508,0,0,0,3.524-3.523V22.314A3.4,3.4,0,0,0,50.646,19.818Z" transform="translate(-71 -22)" fill="#2e4057"/>
  </g>
</svg>
