<svg xmlns="http://www.w3.org/2000/svg" width="34.595" height="28.641" viewBox="0 0 34.595 28.641">
  <g id="Qabz" transform="translate(-886.253 -1014.78)">
    <path id="Path_1186" data-name="Path 1186" d="M889.087,1015.53h28.927a2.09,2.09,0,0,1,2.084,2.084v22.974a2.09,2.09,0,0,1-2.084,2.083H889.087a2.09,2.09,0,0,1-2.084-2.083v-22.974a2.09,2.09,0,0,1,2.084-2.084Z" fill="none" stroke="#fff" stroke-miterlimit="22.926" stroke-width="1.5"/>
    <line id="Line_28" data-name="Line 28" y2="15.531" transform="translate(891.894 1021.36)" fill="none" stroke="#fff" stroke-linecap="round" stroke-linejoin="round" stroke-width="1.5"/>
    <path id="Path_1187" data-name="Path 1187" d="M894.874,1021.17v13.158" transform="translate(0.261 0.187)" fill="none" stroke="#fff" stroke-linecap="round" stroke-linejoin="round" stroke-width="1.5"/>
    <path id="Path_1188" data-name="Path 1188" d="M899.144,1021.17v13.158" transform="translate(0.403 0.187)" fill="none" stroke="#fff" stroke-linecap="round" stroke-linejoin="round" stroke-width="1.5"/>
    <path id="Path_1189" data-name="Path 1189" d="M903.131,1021.17v15.749" transform="translate(0.535 0.187)" fill="none" stroke="#fff" stroke-linecap="round" stroke-linejoin="round" stroke-width="1.5"/>
    <path id="Path_1190" data-name="Path 1190" d="M906.552,1021.17v13.158" transform="translate(0.649 0.187)" fill="none" stroke="#fff" stroke-linecap="round" stroke-linejoin="round" stroke-width="1.5"/>
    <path id="Path_1191" data-name="Path 1191" d="M909.689,1021.17v13.158" transform="translate(0.753 0.187)" fill="none" stroke="#fff" stroke-linecap="round" stroke-linejoin="round" stroke-width="1.5"/>
    <line id="Line_29" data-name="Line 29" y2="15.531" transform="translate(914.854 1021.36)" fill="none" stroke="#fff" stroke-linecap="round" stroke-linejoin="round" stroke-width="1.5"/>
  </g>
</svg>
