<svg xmlns="http://www.w3.org/2000/svg" width="33.43" height="30.04" viewBox="0 0 33.43 30.04">
  <g id="radio" transform="translate(0 -25.999)">
    <g id="Group_859" data-name="Group 859" transform="translate(0 26)">
      <g id="Group_858" data-name="Group 858">
        <path id="Path_1199" data-name="Path 1199" d="M7.532,50.868a14.779,14.779,0,0,1,0-23.123.98.98,0,0,0-1.221-1.532,16.738,16.738,0,0,0,0,26.186.98.98,0,1,0,1.221-1.532Z" transform="translate(0 -26)" fill="#fff"/>
      </g>
    </g>
    <g id="Group_861" data-name="Group 861" transform="translate(25.53 26)">
      <g id="Group_860" data-name="Group 860">
        <path id="Path_1200" data-name="Path 1200" d="M392.591,26.215a.98.98,0,0,0-1.221,1.532,14.779,14.779,0,0,1,0,23.122.98.98,0,1,0,1.221,1.532,16.738,16.738,0,0,0,0-26.186Z" transform="translate(-391.001 -26.002)" fill="#fff"/>
      </g>
    </g>
    <g id="Group_863" data-name="Group 863" transform="translate(5.223 30.087)">
      <g id="Group_862" data-name="Group 862">
        <path id="Path_1201" data-name="Path 1201" d="M85.572,105.291a9.536,9.536,0,0,1,0-14.947.979.979,0,0,0-1.219-1.533,11.495,11.495,0,0,0,0,18.013.979.979,0,0,0,1.219-1.533Z" transform="translate(-80 -88.599)" fill="#fff"/>
      </g>
    </g>
    <g id="Group_865" data-name="Group 865" transform="translate(22.265 30.088)">
      <g id="Group_864" data-name="Group 864">
        <path id="Path_1202" data-name="Path 1202" d="M342.59,88.814a.979.979,0,1,0-1.219,1.533,9.536,9.536,0,0,1,0,14.947.979.979,0,0,0,1.219,1.533,11.495,11.495,0,0,0,0-18.013Z" transform="translate(-341.001 -88.601)" fill="#fff"/>
      </g>
    </g>
    <g id="Group_867" data-name="Group 867" transform="translate(11.818 34.423)">
      <g id="Group_866" data-name="Group 866">
        <path id="Path_1203" data-name="Path 1203" d="M185.9,155a4.9,4.9,0,0,0-.979,9.7v10.937a.979.979,0,0,0,1.959,0V164.7a4.9,4.9,0,0,0-.979-9.7Zm0,7.835a2.938,2.938,0,1,1,2.938-2.938,2.938,2.938,0,0,1-2.938,2.938Z" transform="translate(-181 -155)" fill="#fff"/>
      </g>
    </g>
  </g>
</svg>
