<svg xmlns="http://www.w3.org/2000/svg" width="37.802" height="37.802" viewBox="0 0 37.802 37.802">
  <g id="Sarjam" transform="translate(-321.698 -510.147)">
    <g id="Ellipse_34" data-name="Ellipse 34" transform="translate(321.698 510.147)" fill="#407dff" stroke="#356de5" stroke-width="1">
      <circle cx="18.901" cy="18.901" r="18.901" stroke="none"/>
      <circle cx="18.901" cy="18.901" r="18.401" fill="none"/>
    </g>
    <g id="calculator" transform="translate(260.395 502)">
      <path id="Path_1452" data-name="Path 1452" d="M73.825,37.9H86.967a1.827,1.827,0,0,0,1.825-1.825V17.825A1.827,1.827,0,0,0,86.967,16H73.825A1.827,1.827,0,0,0,72,17.825V36.077A1.827,1.827,0,0,0,73.825,37.9Zm13.141-.73H73.825a1.1,1.1,0,0,1-1.1-1.1V23.3H88.062V36.077A1.1,1.1,0,0,1,86.967,37.172ZM73.825,16.73H86.967a1.1,1.1,0,0,1,1.1,1.1v4.746H72.73V17.825A1.1,1.1,0,0,1,73.825,16.73Z" fill="#fff"/>
      <path id="Path_1453" data-name="Path 1453" d="M112.365,59.65h12.411a.365.365,0,0,0,.365-.365v-2.92a.365.365,0,0,0-.365-.365H112.365a.365.365,0,0,0-.365.365v2.92A.365.365,0,0,0,112.365,59.65Zm.365-2.92h11.681v2.19H112.73Z" transform="translate(-38.175 -38.175)" fill="#fff"/>
      <path id="Path_1454" data-name="Path 1454" d="M132.046,208H120.365a.365.365,0,0,0-.365.365v10.221a.365.365,0,0,0,.365.365h11.681a.365.365,0,0,0,.365-.365V208.365A.365.365,0,0,0,132.046,208Zm-3.285,5.111h-2.19v-1.825h2.19Zm-2.92,0h-2.19v-1.825h2.19Zm-2.92,0h-2.19v-1.825h2.19Zm-2.19.73h2.19v1.825h-2.19Zm2.92,0h2.19v1.825h-2.19Zm2.92,0h2.19v1.825h-2.19Zm2.92-2.555h2.19v1.825h-2.19Zm2.19-.73h-2.19V208.73h2.19Zm-2.92,0h-2.19V208.73h2.19Zm-2.92,0h-2.19V208.73h2.19Zm-5.111-1.825h2.19v1.825h-2.19Zm0,7.666h2.19v1.825h-2.19Zm2.92,0h2.19v1.825h-2.19Zm2.92,0h2.19v1.825h-2.19Zm5.111,1.825h-2.19v-4.38h2.19Z" transform="translate(-45.81 -183.239)" fill="#fff"/>
      <path id="Path_1455" data-name="Path 1455" d="M320,88h.73v.73H320Z" transform="translate(-236.684 -68.715)" fill="#fff"/>
      <path id="Path_1456" data-name="Path 1456" d="M352,88h.73v.73H352Z" transform="translate(-267.224 -68.715)" fill="#fff"/>
    </g>
  </g>
</svg>
