<svg xmlns="http://www.w3.org/2000/svg" width="16.981" height="18.205" viewBox="0 0 16.981 18.205">
  <g id="Dashboard" transform="translate(0 0)">
    <path id="Path_17" data-name="Path 17" d="M757.489,236.6a.5.5,0,0,0-.048-.043l-5.212-4.162a2.732,2.732,0,0,0-3.815,0l-5.212,4.162a.479.479,0,0,0-.048.043,4.49,4.49,0,0,0-1.324,3.2v5.613a4.417,4.417,0,0,0,4.412,4.411H754.4a4.416,4.416,0,0,0,4.411-4.411V239.8a4.487,4.487,0,0,0-1.322-3.2Zm.169,8.807a3.261,3.261,0,0,1-3.257,3.257h-8.159a3.261,3.261,0,0,1-3.258-3.257v-5.613a3.342,3.342,0,0,1,.964-2.357l5.209-4.16a.5.5,0,0,0,.048-.043,1.579,1.579,0,0,1,2.232,0,.52.52,0,0,0,.048.043l5.21,4.16a3.342,3.342,0,0,1,.963,2.357Z" transform="translate(-741.83 -231.619)" fill="#3678ff"/>
    <path id="Path_18" data-name="Path 18" d="M761.547,267.374H756.76a.577.577,0,1,0,0,1.154h4.787a.577.577,0,1,0,0-1.154Z" transform="translate(-750.663 -253.622)" fill="#3678ff"/>
  </g>
</svg>
