<svg id="history_ticket_white" data-name="history ticket_white" xmlns="http://www.w3.org/2000/svg" width="44.707" height="44.706" viewBox="0 0 44.707 44.706">
  <path id="Path_837" data-name="Path 837" d="M122.092,198.582a.873.873,0,1,0-.617-.256A.88.88,0,0,0,122.092,198.582Zm0,0" transform="translate(-110.635 -179.649)" fill="#fff"/>
  <path id="Path_838" data-name="Path 838" d="M258.882,200.92a.874.874,0,1,0,.255.617A.881.881,0,0,0,258.882,200.92Zm0,0" transform="translate(-234.916 -183.143)" fill="#fff"/>
  <path id="Path_839" data-name="Path 839" d="M293.264,167.41a.873.873,0,1,0-.618-.256A.88.88,0,0,0,293.264,167.41Zm0,0" transform="translate(-266.86 -151.199)" fill="#fff"/>
  <path id="Path_840" data-name="Path 840" d="M42.088,21.48H39.651l4.289-4.289a2.62,2.62,0,0,0,0-3.7L40.05,9.6a.873.873,0,0,0-1.235,0,2.619,2.619,0,0,1-3.7-3.7.873.873,0,0,0,0-1.235L31.221.767a2.619,2.619,0,0,0-3.7,0L13.095,15.189a.873.873,0,0,0,1.235,1.235L28.751,2a.873.873,0,0,1,1.235,0L33.32,5.336a4.368,4.368,0,0,0,6.051,6.051l3.334,3.334a.874.874,0,0,1,0,1.235L37.181,21.48H33.353l2.869-2.869a.873.873,0,0,0,0-1.235L27.331,8.485a.873.873,0,0,0-1.235,0L13.1,21.48H2.62A2.622,2.622,0,0,0,0,24.1v5.5a.873.873,0,0,0,.873.873,2.62,2.62,0,0,1,0,5.239A.873.873,0,0,0,0,36.586v5.5a2.623,2.623,0,0,0,2.62,2.62H42.088a2.623,2.623,0,0,0,2.62-2.62v-5.5a.873.873,0,0,0-.873-.873,2.62,2.62,0,0,1,0-5.239.873.873,0,0,0,.873-.873V24.1a2.622,2.622,0,0,0-2.62-2.62ZM26.714,10.337l7.656,7.656L30.884,21.48H27.426l2.56-2.56a.873.873,0,1,0-1.235-1.235l-3.795,3.795H15.571ZM42.961,28.815a4.367,4.367,0,0,0,0,8.556v4.715a.874.874,0,0,1-.873.873H2.62a.874.874,0,0,1-.873-.873V37.371a4.367,4.367,0,0,0,0-8.556V24.1a.874.874,0,0,1,.873-.873H42.088a.874.874,0,0,1,.873.873Zm0,0" transform="translate(-0.001 0)" fill="#fff"/>
  <path id="Path_841" data-name="Path 841" d="M197.99,346.486a.873.873,0,1,0-.617.256A.881.881,0,0,0,197.99,346.486Zm0,0" transform="translate(-179.342 -314.872)" fill="#fff"/>
  <path id="Path_842" data-name="Path 842" d="M296.99,346.486a.873.873,0,1,0-.617.256A.881.881,0,0,0,296.99,346.486Zm0,0" transform="translate(-269.698 -314.872)" fill="#fff"/>
  <path id="Path_843" data-name="Path 843" d="M247.49,346.486a.873.873,0,1,0-.617.256A.881.881,0,0,0,247.49,346.486Zm0,0" transform="translate(-224.52 -314.872)" fill="#fff"/>
  <path id="Path_844" data-name="Path 844" d="M147.873,346.742a.873.873,0,1,0-.617-.256A.88.88,0,0,0,147.873,346.742Zm0,0" transform="translate(-134.164 -314.872)" fill="#fff"/>
  <path id="Path_845" data-name="Path 845" d="M346.49,346.486a.873.873,0,1,0-.617.256A.881.881,0,0,0,346.49,346.486Zm0,0" transform="translate(-314.875 -314.872)" fill="#fff"/>
  <path id="Path_846" data-name="Path 846" d="M147.873,394.742h17.289a.873.873,0,1,0,0-1.746H147.873a.873.873,0,0,0,0,1.746Zm0,0" transform="translate(-134.164 -358.681)" fill="#fff"/>
  <path id="Path_847" data-name="Path 847" d="M184.193,441a.873.873,0,1,0,.617.256A.88.88,0,0,0,184.193,441Zm0,0" transform="translate(-167.313 -402.489)" fill="#fff"/>
  <path id="Path_848" data-name="Path 848" d="M121.418,297H94.873a.873.873,0,0,0-.873.873v12.574a.873.873,0,0,0,.873.873H98.51a.873.873,0,0,0,0-1.746H95.746V298.742h24.8V309.57H106.369a.873.873,0,0,0,0,1.746h15.049a.873.873,0,0,0,.873-.873V297.869A.873.873,0,0,0,121.418,297Zm0,0" transform="translate(-85.792 -271.063)" fill="#fff"/>
</svg>
