<svg id="Train" xmlns="http://www.w3.org/2000/svg" xmlns:xlink="http://www.w3.org/1999/xlink" width="127.948" height="127.949" viewBox="0 0 127.948 127.949">
  <defs>
    <linearGradient id="linear-gradient" x1="0.5" x2="0.5" y2="1" gradientUnits="objectBoundingBox">
      <stop offset="0" stop-color="#fff"/>
      <stop offset="1" stop-color="#fff"/>
    </linearGradient>
  </defs>
  <path id="Path_388" data-name="Path 388" d="M127.667,124.3l-20.9-40.237,3.8-3.175a2.5,2.5,0,0,0,.9-1.917V18.618A18.639,18.639,0,0,0,92.838,0H35.111A18.639,18.639,0,0,0,16.494,18.618v8.622a2.5,2.5,0,1,0,5,0V18.618A13.635,13.635,0,0,1,35.111,5H92.838a13.635,13.635,0,0,1,13.62,13.62V77.8L86.844,94.212H79.718V90.588a2.5,2.5,0,0,0-5,0v3.624H67.13V90.588a2.5,2.5,0,1,0-5,0v3.624H54.542V90.588a2.5,2.5,0,1,0-5,0v3.624H41.1L21.492,77.8V50.73a2.5,2.5,0,1,0-5,0V78.969a2.5,2.5,0,0,0,.9,1.916l3.8,3.175L.282,124.3a2.5,2.5,0,1,0,4.435,2.3L25.11,87.345l3.454,2.889L15.41,124.555a2.5,2.5,0,1,0,4.667,1.788l2.642-6.892h63.5a2.5,2.5,0,1,0,0-5H24.634l1.925-5.021a2.515,2.515,0,0,0,.323.023h74.1a2.508,2.508,0,0,0,.405-.035l6.487,16.923a2.5,2.5,0,1,0,4.667-1.788L99.385,90.235l3.454-2.889L123.232,126.6a2.5,2.5,0,1,0,4.435-2.3Zm-28.183-19.84H28.465l4.152-10.832,5.977,5a2.5,2.5,0,0,0,1.6.582H87.752a2.5,2.5,0,0,0,1.6-.582l5.977-5Zm0,0" transform="translate(0 0)" fill="url(#linear-gradient)"/>
  <path id="Path_389" data-name="Path 389" d="M378.5,458a2.5,2.5,0,1,0,1.766.732A2.517,2.517,0,0,0,378.5,458Zm0,0" transform="translate(-282.038 -343.543)" fill="url(#linear-gradient)"/>
  <path id="Path_390" data-name="Path 390" d="M184.972,79.5a7.505,7.505,0,0,0-7.5-7.5H121.5a7.506,7.506,0,0,0-7.5,7.5v21.991a7.506,7.506,0,0,0,7.5,7.5h55.978a7.505,7.505,0,0,0,7.5-7.5ZM119,101.488V79.5a2.5,2.5,0,0,1,2.5-2.5h25.49v26.989H121.5A2.5,2.5,0,0,1,119,101.488Zm60.976,0a2.5,2.5,0,0,1-2.5,2.5h-25.49V77h25.49a2.5,2.5,0,0,1,2.5,2.5Zm0,0" transform="translate(-85.512 -54.007)" fill="url(#linear-gradient)"/>
  <path id="Path_391" data-name="Path 391" d="M122.165,262.993a8.5,8.5,0,1,0-8.5-8.5A8.507,8.507,0,0,0,122.165,262.993Zm0-12a3.5,3.5,0,1,1-3.5,3.5A3.5,3.5,0,0,1,122.165,251Zm0,0" transform="translate(-85.263 -184.525)" fill="url(#linear-gradient)"/>
  <path id="Path_392" data-name="Path 392" d="M338.5,246a8.5,8.5,0,1,0,8.5,8.5A8.505,8.505,0,0,0,338.5,246Zm0,12a3.5,3.5,0,1,1,3.5-3.5A3.5,3.5,0,0,1,338.5,258Zm0,0" transform="translate(-247.533 -184.525)" fill="url(#linear-gradient)"/>
  <path id="Path_393" data-name="Path 393" d="M225.929,246.125H200.753a2.5,2.5,0,1,0,0,5h25.176a2.5,2.5,0,1,0,0-5Zm0,0" transform="translate(-148.711 -184.618)" fill="url(#linear-gradient)"/>
  <path id="Path_394" data-name="Path 394" d="M225.929,294H200.753a2.5,2.5,0,0,0,0,5h25.176a2.5,2.5,0,1,0,0-5Zm0,0" transform="translate(-148.711 -220.529)" fill="url(#linear-gradient)"/>
  <path id="Path_836" data-name="Path 836" d="M225.929,246.125H200.753a2.537,2.537,0,0,0,0,5.074h25.176a2.537,2.537,0,0,0,0-5.074Zm0,0" transform="translate(-229.64 253.347) rotate(-90)" fill="url(#linear-gradient)"/>
</svg>
