<svg xmlns="http://www.w3.org/2000/svg" width="186.278" height="147.686" viewBox="0 0 186.278 147.686">
  <g id="shapark" transform="translate(-662 -595)">
    <path id="Path_1205" data-name="Path 1205" d="M597.891,585.934a1.058,1.058,0,0,1,1.213-.922q32.206,0,64.411,0c.85-.042,1.7.1,2.545.123q58.61-.014,117.218-.007c-.093.6-.218,1.2-.3,1.8-3.073.132-6.153.019-9.226.056-24.041-.014-48.08.033-72.119-.023a4.164,4.164,0,0,0-.841-.095q-50.836.01-101.669,0c-.56.046-1.239-.3-1.23-.931m75.481,4.081a102.739,102.739,0,0,1,14.129.169,22.246,22.246,0,0,1,5.183,1.065q45.1.059,90.205.016c0,.579,0,1.158,0,1.737q-44.4,0-88.8,0c-1.707-.125-3.319.56-5.011.669-.85.086-1.709.1-2.55.238-.769.039-1.542-.016-2.307.09-1.589.146-3.189-.065-4.775.12a9.085,9.085,0,0,1-2.186-.03c-1.461-.155-2.943.1-4.4-.134a44.215,44.215,0,0,1-9.136-1.052c-11.73-.042-23.462,0-35.194-.021-.537-.021-1.07-.116-1.61-.113q-14.006.014-28.017.007c-.489.042-1.107-.229-1.068-.8-.056-.581.568-.871,1.063-.824q14.35.007,28.705,0c2.545.046,5.1-.114,7.638.114,9.5-.007,19.011.023,28.518-.014a49.182,49.182,0,0,1,7.714-1.058c.625-.127,1.274-.032,1.9-.176m-15.1,6.2c4.057-.28,8.122-.479,12.193-.431,4.006.023,8.02-.107,12.012.215.653.037,1.311,0,1.966.039,1,.141,2.006.153,3.011.234.611.107,1.232.181,1.853.229,1.216.167,2.4.512,3.585.785q45,.01,90,0c0,.579,0,1.158,0,1.737q-45,.011-89.992.009a58.472,58.472,0,0,1-7.941.709,19.382,19.382,0,0,1-2.934.093c-2.378.241-4.773.039-7.156.139a38.668,38.668,0,0,1-4.178.088c-2.448-.278-4.921.056-7.367-.208-2.6-.042-5.19-.169-7.779-.4a38.592,38.592,0,0,1-4.287-.656q-21.777-.021-43.555-.007a16.273,16.273,0,0,1-2.536-.1c-2.436-.035-4.877,0-7.314-.014,0-.539,0-1.082,0-1.621,1.742-.09,3.471.178,5.213.113q23.855,0,47.709,0a11.117,11.117,0,0,0,2.049-.378,49.978,49.978,0,0,1,5.447-.583m-61.262,7.529c-.011-1.211,1.276-1.95,2.362-1.943q4.735.007,9.474,0a36.233,36.233,0,0,1,3.851.2c.991.053,1.973.2,2.962.3.463.086.929.167,1.4.232,1.941.533,3.953.178,5.926.431q9.146.007,18.293,0a29.148,29.148,0,0,0,3.814.06,53.966,53.966,0,0,1,9.356-1.049c.977-.139,1.978.067,2.948-.144,1.73.032,3.451-.187,5.183-.137,5.051.014,10.106-.069,15.15.139a14.633,14.633,0,0,0,2.448.1,69.74,69.74,0,0,1,7.415.736,9.391,9.391,0,0,0,1.616.3q46.844,0,93.684,0v1.853q-45.913,0-91.824,0a11.046,11.046,0,0,0-3.129.2c-1.151.255-2.332.322-3.5.461-1.8.144-3.6.278-5.408.287-1.278.215-2.582-.044-3.854.185q-7.847.059-15.7,0c-3.08-.208-6.181-.2-9.263-.47-.771-.114-1.549-.148-2.32-.227-1.049-.137-2.073-.433-3.12-.551q-12.884,0-25.771.007c-1.119.151-2.225.391-3.346.542-.618.056-1.237.125-1.85.234-1.262.07-2.52.176-3.782.257-3.622,0-7.246.009-10.868,0-1.049-.016-2.27-.845-2.149-1.994m63.733,3.958a36.127,36.127,0,0,1,4.164-.107,29.06,29.06,0,0,1,3.421.086c2.094.114,4.2-.093,6.283.134,1.753,0,3.508.069,5.25.215,1.3,0,2.591.208,3.888.287,1.051.109,2.075.375,3.112.544q43.436.024,86.871.007a25.554,25.554,0,0,1,3.233.1c1.975.044,3.951,0,5.926.018,0,.579,0,1.158,0,1.737q-47.886,0-95.773,0a47.992,47.992,0,0,1-7.721.834,18.616,18.616,0,0,1-2.49.109c-1.61.215-3.238-.014-4.847.211-4.937.012-9.875-.007-14.812.007-4.958-.25-9.94-.239-14.875-.894a16.638,16.638,0,0,0-2.492-.387q-4.4.007-8.8,0a28.252,28.252,0,0,0-5.222.667,18.381,18.381,0,0,0-1.85.239c-1.237.079-2.483.088-3.71.229-6.237.044-12.473.033-18.71.007a3.6,3.6,0,0,1-1.672-.463,1.791,1.791,0,0,1-.366-2.679,3.4,3.4,0,0,1,2.587-.894c4.715.007,9.43-.014,14.145.009,1.871.218,3.756.035,5.635.13.625.137,1.271.058,1.9.167,1.964.188,3.9.57,5.836.938,3.022.07,6.051.007,9.076.03,2.01.146,3.935-.57,5.933-.662,5.352-.449,10.713-.63,16.086-.62m-59.27,6.292a4.1,4.1,0,0,1,2.049-.264q11.7.01,23.395,0c1.575.111,3.154.146,4.722.373a13.776,13.776,0,0,0,3.84.438c2.283-.088,4.6.2,6.86-.2,1.885-.181,3.777-.259,5.667-.378a23.37,23.37,0,0,0,3.221-.1c5.563-.032,11.125,0,16.688-.016,3.733.183,7.473.213,11.2.5,1.121.125,2.24.248,3.353.426,9.97.021,19.944,0,29.914.007.533,0,1.058.111,1.593.118H782.89c0,.579,0,1.158,0,1.737q-49.856,0-99.707,0c-1.2.067-2.353.463-3.557.5-.556.081-1.121.065-1.672.164-1.234.093-2.478.09-3.7.236-.961.063-1.924-.014-2.885.039-2.145.25-4.314-.053-6.459.208-3.122,0-6.246.032-9.365-.016-1.725-.25-3.488.058-5.22-.192-2.126.028-4.238-.181-6.362-.271-1.054-.148-2.112-.257-3.163-.424-2.228-.028-4.458-.023-6.686,0-1.292.185-2.557.537-3.861.662-.959.007-1.918.032-2.872.13-8.18.012-16.362,0-24.541.007a2.358,2.358,0,0,1-2.529-1.612,2.01,2.01,0,0,1,1.163-2.066m2.022,7.151c.31-1.213,1.688-1.67,2.812-1.628,1.774.046,3.555-.09,5.322.095,4.016.116,8.045-.123,12.054.146,3.138-.055,6.274.072,9.4.31,1.146.046,2.288.164,3.428.3a17.258,17.258,0,0,0,4.956-.192c6.012-.614,12.066-.377,18.1-.424,1.744.058,3.506-.118,5.241.09,1.327.081,2.661-.067,3.983.113a24.447,24.447,0,0,1,2.733.12c1.688,0,3.365.19,5.048.282q1.48.174,2.946.422c24.49.044,48.983-.026,73.471.037a4.066,4.066,0,0,0,.825.1q14.538-.007,29.078,0c0,.579,0,1.158,0,1.737q-51.482.011-102.964.007a66.684,66.684,0,0,1-8.687.9c-.878.058-1.758-.016-2.633.049-2,.239-4.018-.065-6.014.195-3.015.025-6.035.014-9.051,0-1.686-.229-3.39.012-5.074-.208a66.706,66.706,0,0,1-7.749-.507c-2.158-.5-4.372-.074-6.528.229-.848.116-1.707.1-2.55.239a61.828,61.828,0,0,1-7.024.035c-4.331-.03-8.664.009-12.994-.019-2.094-.227-4.2-.039-6.3-.123a6.326,6.326,0,0,1-1.012-.266c-.542-.514-1.139-1.239-.813-2.033m6.39,4.2a35.647,35.647,0,0,1,4.771.081q8.91.01,17.821,0c1.471-.049,2.927.192,4.4.12,3.629.4,7.256-.241,10.889-.118,2.872.083,5.734-.243,8.608-.088,1.521.174,3.055.049,4.583.086,1.651.118,3.3.181,4.958.257,2.524.225,5.037.57,7.55.9q54.712.014,109.427,0c0,.579,0,1.158,0,1.737H676.936a33.119,33.119,0,0,0-4.722.148c-1.783.28-3.583.426-5.373.632-1.528.1-3.052.271-4.583.287-.855.2-1.744-.026-2.6.183-1.5.056-3.006-.035-4.5.139-4.2-.046-8.4.118-12.587-.139a21.7,21.7,0,0,0-3.152-.093c-1.665.056-3.346-.118-5,.093a46.191,46.191,0,0,1-5.4-.093q-8.226,0-16.454,0a11.608,11.608,0,0,0-2.323.1c-1.116-.014-2.476-.563-2.587-1.832a2.272,2.272,0,0,1,2.23-2.411m4.377,7.188a2.53,2.53,0,0,1,2.691-1.32c2.631.1,5.25-.16,7.881-.109H638.27a32.3,32.3,0,0,1,3.416.076c1.357.1,2.719-.014,4.078.063,2.232.167,4.484.252,6.718.472.766.111,1.542.169,2.316.227.611.1,1.23.171,1.85.234.611.1,1.232.167,1.85.239a17.762,17.762,0,0,0,3.842-.039q39.021,0,78.045,0c2.777-.049,5.565.113,8.337-.118q17.084.007,34.166,0c0,.579,0,1.158,0,1.737-.843.007-1.684-.021-2.522.026a9.551,9.551,0,0,1-1.992.09q-28.958,0-57.911,0c-2.314.037-4.636-.1-6.943.118q-26.4,0-52.8,0a16.049,16.049,0,0,0-2.52.095c-3.462.482-6.95.774-10.44.952a28.733,28.733,0,0,0-3.71.111c-2.163-.032-4.333.095-6.489-.116-3.784,0-7.57.009-11.355,0a4.466,4.466,0,0,0-1.054.1c-3.022.046-6.049.023-9.074.014a2.015,2.015,0,0,1-1.82-2.846m10.567,6.661a2.458,2.458,0,0,1,2.536-2.061q14.941-.024,29.879-.007c2.036.218,4.083.053,6.125.139a14.379,14.379,0,0,0,2.448.095c1.959.16,3.925.215,5.885.378,2.061.174,4.115.4,6.167.656q30.566.024,61.132.007c1.929-.028,3.865.081,5.787-.116q19.116,0,38.235,0a7.557,7.557,0,0,0-.139,1.739c-3.511.056-7.031-.121-10.533.12q-25.241-.014-50.479,0a35.755,35.755,0,0,0-4.08.093c-12.767.053-25.535.014-38.3.021a26.058,26.058,0,0,0-3.339.266c-.4.06-.8.1-1.2.172-2.837.215-5.674.5-8.52.514-2.131.262-4.3-.074-6.431.19-1.408.037-2.818.032-4.224,0a4.456,4.456,0,0,0-1.065-.1c-9.254.023-18.511-.023-27.765.023a2.131,2.131,0,0,1-2.117-2.119m8.492,4.794a2.807,2.807,0,0,1,2.4-.961c2.774.018,5.551-.016,8.326.016,2.232.266,4.493-.053,6.725.2a11.432,11.432,0,0,0,2.3-.067c1.2-.113,2.429.1,3.624-.12.792-.021,1.586-.019,2.374-.118,2.019-.088,4.05.095,6.063-.125,1.621-.1,3.231.19,4.852.107,1.656-.07,3.3.111,4.958.139.623.141,1.274.051,1.9.171,1.068.079,2.131.181,3.194.3.614.1,1.234.171,1.855.229,1.156.176,2.3.4,3.474.47a13.154,13.154,0,0,0,2.221.081h95.3c0,.579,0,1.158,0,1.737q-47.88,0-95.763,0c-2.307-.109-4.565.468-6.85.662-2,.229-4.025.306-6.026.475-1.732-.032-3.451.188-5.181.137-3.164,0-6.327.007-9.491,0-1.188-.158-2.383-.09-3.576-.137a7.817,7.817,0,0,0-1.755-.095c-3.168.007-6.334,0-9.5,0-2.543.229-5.1.069-7.652.116-1.239-.072-2.654.308-3.685-.593-.151-.243-.306-.482-.468-.716a2.242,2.242,0,0,1,.375-1.9m-1.656,6.73a2.619,2.619,0,0,1,2.652-1.665c3.585.014,7.17-.032,10.755.023,2,.155,4.023.232,6.024.47,1.081.158,2.17.278,3.245.475,1.964.324,3.877-.424,5.834-.475,1.309-.137,2.633-.083,3.937-.238,4.349-.079,8.708-.294,13.055-.018.959,0,1.92-.03,2.879.018,1.457.148,2.932.12,4.4.234.767.12,1.547.15,2.321.234a33.676,33.676,0,0,0,4.53.438q37.059-.01,74.119,0c.567,0,1.137-.007,1.707.026,1.575.211,3.18.037,4.768.093H782.89c0,.579,0,1.156,0,1.737q-33.637.007-67.274,0c-1.012.06-2.01-.157-3.02-.125-7.022.012-14.043,0-21.063,0a14.614,14.614,0,0,0-3,.132,21.789,21.789,0,0,1-3.115.484c-.922.116-1.848.183-2.774.227-2,.146-4.013.2-6.021.225a4.977,4.977,0,0,1-1.063.1c-2.626-.014-5.252-.007-7.876,0a4.264,4.264,0,0,1-.843-.093c-2.226-.007-4.442-.151-6.66-.285-.692-.107-1.392-.157-2.089-.225a11.911,11.911,0,0,0-5.6-.007c-.618.056-1.237.125-1.85.234-1.234.132-2.483.079-3.71.234-4.419.051-8.842.018-13.263.018a1.962,1.962,0,0,1-2-2.267m3.476,4.372c1.649-.086,3.309.088,4.954-.107a31.987,31.987,0,0,1,4.419.09,57.42,57.42,0,0,1,7.045.5,54.26,54.26,0,0,0,7.077.662c1.144-.028,2.3.058,3.439-.046a42.5,42.5,0,0,1,6.387-.676c1.121-.2,2.272.012,3.4-.183a148.263,148.263,0,0,1,16.758.47c.894.107,1.772.34,2.668.433q41,0,82,0c3.191.241,6.4.069,9.6.12,0,.579,0,1.156,0,1.737q-45.913.007-91.826,0a41.828,41.828,0,0,1-5.88.723c-4.463.324-8.955.188-13.432.178-.854-.208-1.746.021-2.6-.183a37.073,37.073,0,0,1-7.061-.783c-1.3-.125-2.6-.019-3.9-.056a38.118,38.118,0,0,0-4.5.384c-2.427.3-4.863.5-7.3.66q-5.683,0-11.364,0a2.046,2.046,0,0,1-2.087-1.969,2.352,2.352,0,0,1,2.2-1.955m3.258,6.056c1.181-.572,2.541-.359,3.81-.4a18.517,18.517,0,0,1,2.913.093,27.07,27.07,0,0,1,3.7.222c2.508.153,4.986.586,7.483.836,6.721.018,13.444,0,20.164.009a5.842,5.842,0,0,0,1.725-.139,27.013,27.013,0,0,1,13.076.245q45.809.021,91.62.007v1.853q-32.828.007-65.657,0c-1.084.062-2.156-.162-3.238-.125q-10.54.014-21.079,0a7.7,7.7,0,0,0-2.5.2,21.6,21.6,0,0,1-3.886.817,22.033,22.033,0,0,1-8.858-.871,3.829,3.829,0,0,0-1.431-.148c-6.577.026-13.156-.03-19.734.028-2.953.424-5.917.762-8.886,1-2.5.058-5,0-7.5.03a2.75,2.75,0,0,1-2.545-1.031,1.9,1.9,0,0,1,.827-2.631m6.478,7.89a2.238,2.238,0,0,1,2.411-2.277c1.26-.107,2.279.762,3.471.984a9.1,9.1,0,0,0,2.557.183q49.092,0,98.186,0c3.469.239,6.955.067,10.433.12q10.477,0,20.959,0c0,.579,0,1.158,0,1.737h-131.2c-1.415-.023-2.645.866-4.057.894a2.235,2.235,0,0,1-2.756-1.637Z" transform="translate(65 10)" fill="#41638e"/>
    <path id="Path_1206" data-name="Path 1206" d="M717.421,965.834q1.136-1.023,2.251-2.071a4.654,4.654,0,0,1-1.5,2.332,49.31,49.31,0,0,1-6.134,4.944,8.667,8.667,0,0,1-1.488.989,4.907,4.907,0,0,1,1.95-2.257c1.645-1.3,3.387-2.494,4.918-3.937m-17.612,1.922c.956-.854,1.914-1.707,2.84-2.591a6.668,6.668,0,0,1-1.8,2.691c-1.009.979-2.152,1.807-3.232,2.7a2.112,2.112,0,0,1,.866.832,2.353,2.353,0,0,1-.775,1.373,4.79,4.79,0,0,1-.923-.687,3.283,3.283,0,0,1,.578-1.335c-1.01.761-2.065,1.459-3.075,2.22-.38.23-.677.607-1.12.717a3.593,3.593,0,0,1,1.017-1.5c1.813-1.549,3.84-2.833,5.62-4.423m30.651-.16a8.232,8.232,0,0,1-2.488,3.193c-2.073,1.81-4.376,3.327-6.6,4.936a2.884,2.884,0,0,1,1.079-1.6c1.414-1.193,2.978-2.191,4.4-3.375,1.251-1,2.394-2.116,3.612-3.149m-85.852,2.731c.21-.323.406-.657.63-.971a1.44,1.44,0,0,1,.845.807,1.487,1.487,0,0,1-.81,1.357c-.243-.207-.484-.417-.711-.642a3.63,3.63,0,0,1-.66.959,4.2,4.2,0,0,1-.924-.711,13.046,13.046,0,0,1,.7-1.408.6.6,0,0,1,.588.192c.109.143.226.28.345.417m26.419,2.082a13.305,13.305,0,0,1,.827-1.53c.35.3.854.587.855,1.106a1.7,1.7,0,0,1-.753,1.24,5.725,5.725,0,0,1-.929-.817m35.051-.2a5.745,5.745,0,0,1,.66-.995,1.7,1.7,0,0,1,.847.964,2.4,2.4,0,0,1-.791,1.243c-.26-.211-.518-.427-.767-.648a2.148,2.148,0,0,1-.759.943c-.278-.236-.559-.468-.833-.708a7.557,7.557,0,0,1,.781-1.472l.279.07a6.061,6.061,0,0,1,.583.6m5.577.04a1.516,1.516,0,0,1,.385-.6c0,.084,0,.254.007.339a10.02,10.02,0,0,0-.255,1.948c-.051.289-.041.585-.086.877a7.879,7.879,0,0,1-.839,3.277c-.263.565-.715,1.189-1.412,1.167-.119-.108-.236-.216-.353-.323a5.592,5.592,0,0,1-1.254,1.392c-.344.243-.79.068-1.177.143a4.854,4.854,0,0,0-2.879,1.673,12.438,12.438,0,0,1-1.874,2.349A10.711,10.711,0,0,1,699.81,986a1.825,1.825,0,0,1-1.068.344,20.313,20.313,0,0,1,2.045-1.65c1.866-1.485,2.62-4.018,4.7-5.273a5.912,5.912,0,0,1,2.866-.671c.246.018.429-.246.457-.466.072-1.022.1-2.046.2-3.066a6.885,6.885,0,0,1,.973-2.651l.134.165a12.415,12.415,0,0,0-.452,4.19.975.975,0,0,0,.362.514c.226-.034.514.01.666-.207a2.064,2.064,0,0,0,.247-1.055c.025-.821.09-1.638.153-2.456a3.947,3.947,0,0,1,.564-1.471m13.409,1.871a4.068,4.068,0,0,1,.8-1.491,1.174,1.174,0,0,1,.771.7,2.213,2.213,0,0,1-.591,1.543,7.152,7.152,0,0,1-.978-.756m-67.319-.608a7.349,7.349,0,0,1,.754-.765,3.213,3.213,0,0,1-1.237,2.228c-.489.647-1.162,1.108-1.708,1.7-.946.946-1.947,1.835-2.922,2.75l.44,0a1.085,1.085,0,0,1,.881.676,4.634,4.634,0,0,1-.686,3.028,1.632,1.632,0,0,1-1.576.98,1.15,1.15,0,0,1-.875-.958,10.291,10.291,0,0,1,.091-3.223,12.144,12.144,0,0,1,.569-2.726c.13-.322.242-.654.4-.967.177.148.092.379.081.572-.1.911-.2,1.824-.339,2.73.562-.444,1.013-1.01,1.57-1.463,1.489-1.549,3.136-2.942,4.56-4.556m-6.075,7.9c-.214.2-.081.5.058.7a1.27,1.27,0,0,0,1.491,0c.235-.143.164-.444.18-.672a1.2,1.2,0,0,0-1.729-.031m40.207-3.8a5.706,5.706,0,0,1,1.2-3.228c-.09.934-.32,1.851-.4,2.787a1.392,1.392,0,0,0,.608,1.324,1.541,1.541,0,0,0,1.219-.059,7.428,7.428,0,0,1,.955-.84c.277-.168.638.1.9-.118.23-.227.383-.537.689-.68a2.461,2.461,0,0,1-.816,1.635c-.227.229-.568.1-.849.153-.8.316-.975,1.376-1.806,1.652a1.292,1.292,0,0,1-1.472-.539l.126-.128c-.082-.031-.176-.055-.225.039a3.9,3.9,0,0,0-.462.815c.373.357.94.595,1.063,1.147a4.543,4.543,0,0,1-.4,1.955,5.359,5.359,0,0,1-2.94,3.235,2.646,2.646,0,0,1-2.863-.542,2.791,2.791,0,0,1-.488-2.119,10.687,10.687,0,0,1,1.486-3.8,5.387,5.387,0,0,1,.879-1.342,2.573,2.573,0,0,1-.432,1.4,22.567,22.567,0,0,0-1.074,2.592,1.617,1.617,0,0,0,.327,1.6,2.114,2.114,0,0,0,1.229.492,3.217,3.217,0,0,0,3.458-1.939c-.381-.444-1.009-.579-1.335-1.081a1.819,1.819,0,0,1,.147-.818c.375-.76.822-1.485,1.16-2.263a5.545,5.545,0,0,0,.114-1.33m34.075-2.241c.209-.333.4-.676.632-1a1.7,1.7,0,0,1,.86.719,1.745,1.745,0,0,1-.734,1.453c-.321-.088-.5-.444-.8-.606a2.544,2.544,0,0,1-.711.963,7.445,7.445,0,0,1-.9-.734,6.489,6.489,0,0,1,.83-1.5,1.823,1.823,0,0,1,.817.7m-81.915,1.081a14.7,14.7,0,0,1,.573-1.623,2.193,2.193,0,0,1,.861,1.847,14.331,14.331,0,0,1-1.164,3.513c.31.4.935.576.981,1.15a7.061,7.061,0,0,1-1.147,4.015,4.25,4.25,0,0,1-2.5,1.975c-.321,0-.641,0-.961,0a2.118,2.118,0,0,1-1.464-1.207,5.114,5.114,0,0,1,.079-3.8,21.931,21.931,0,0,1,1.3-3.1.794.794,0,0,1,.4-.421,4,4,0,0,1-.394,1.322,12.614,12.614,0,0,0-1.012,3.03,2.134,2.134,0,0,0,.559,1.675,2.318,2.318,0,0,0,1.953.37,2.847,2.847,0,0,0,2.549-2.279c-.423-.353-1.036-.5-1.285-1.036a3.386,3.386,0,0,1,.512-1.829,11.715,11.715,0,0,0,.75-2.074,5.048,5.048,0,0,0-.455-1.073c-.068-.14-.2-.283-.133-.449m30.5,2.062a5.55,5.55,0,0,1,.878-2.948.792.792,0,0,1,.088.524,11.053,11.053,0,0,0-.062,1.254c-.125.672.012,1.363-.08,2.039a4.592,4.592,0,0,1-.94,2.644c-.236-.19-.035-.483-.024-.718a13.334,13.334,0,0,0,.141-2.794m46.618-2.529c.2.225.073.516.027.775-.046.6-.136,1.2-.149,1.8a2.092,2.092,0,0,0,.311,1.773,1.14,1.14,0,0,0,1.409.327c.428-.244.631-.74,1.046-1a1.017,1.017,0,0,1,.683.018,1.938,1.938,0,0,0,.562-.653c.383.316.5-.19.632-.453.439.006.58-.4.7-.746l.156.187a3.2,3.2,0,0,1-.567,1.322,2.569,2.569,0,0,1-1.162.8,6.33,6.33,0,0,1-.491.48c-.249.208-.608.1-.877.256-.553.381-.691,1.153-1.291,1.48a2.586,2.586,0,0,1-.492.185,1.36,1.36,0,0,1-1.01-.7c-.477.774-.874,1.719-1.8,2.055-.535.27-1.1-.118-1.651.016a6.545,6.545,0,0,0-1.044.327,1.765,1.765,0,0,1,.6-1.063,2.545,2.545,0,0,1,1.637-.918c.3.035.594.131.9.141a.971.971,0,0,0,.781-.862c.182-1.177.1-2.381.3-3.554.229-.675.5-1.336.8-1.987m-58.472.757c.375.3.9.618.86,1.167a1.855,1.855,0,0,1-.686,1.2c-.336-.225-.646-.481-.961-.733a8.945,8.945,0,0,1,.787-1.629m-1.651.1c.4.321.975.691.854,1.288a1.905,1.905,0,0,1-.719,1.076,5.775,5.775,0,0,1-.947-.815,15.119,15.119,0,0,1,.812-1.549m52.84.871c.086-.185.181-.4.4-.44-.112,1.018-.073,2.041-.157,3.06a5.953,5.953,0,0,1-.451,2.535,1.448,1.448,0,0,1-.622.8c.026-.506.176-.994.215-1.5.018-.79-.015-1.582.015-2.371a6.289,6.289,0,0,1,.6-2.09m-43.04-.3a11.516,11.516,0,0,1,1.3.418c.355.088.663-.152.964-.3a1.375,1.375,0,0,1-.422,1.054,38.036,38.036,0,0,0-2.8,2.679c-.276.248-.513.636-.923.648-.4-.1-.781-.238-1.172-.349a4.438,4.438,0,0,1-1.213,1.246,14.832,14.832,0,0,1-9.09,1.193,1.3,1.3,0,0,1-.933-1.36,4.3,4.3,0,0,1,.214-1.97c.252.319.254.772.53,1.074a3.13,3.13,0,0,0,1.486.507,19.713,19.713,0,0,0,4.574-.109,12.131,12.131,0,0,0,4.072-1.046,2.673,2.673,0,0,0,.67-.545c.012.1.039.305.051.407,1.47-.2,2.533-1.329,3.515-2.337a2.6,2.6,0,0,0-1.221-.44c-.323.034-.512.334-.663.587l-.19.044c.171-.625.52-1.334,1.25-1.4m13.354,1.515c.074-.122.28-.542.4-.218a4.467,4.467,0,0,1-.719,1.691c-.379.513-1.177.5-1.482,1.09-.455.749-.53,1.79-1.344,2.276a4.127,4.127,0,0,1-1.838.343.423.423,0,0,1,.2-.388,13.528,13.528,0,0,0,2.077-1.557c.452-.721.607-1.666,1.324-2.2.445-.37,1.136-.452,1.382-1.037m-7,1.733a9.529,9.529,0,0,1,.789-1.758,2.19,2.19,0,0,1,1.291,1.861,3.916,3.916,0,0,1-1.01,2.438,3.4,3.4,0,0,1-1.938.854c.184-.48.732-.638,1.059-1a4.282,4.282,0,0,0,.906-1.04c-.108-.609-.683-.956-1.1-1.354m23.062-1.539a.9.9,0,0,1,1.044.968,5.689,5.689,0,0,1-.783,2.651,1.492,1.492,0,0,1-.9.8,6.678,6.678,0,0,1-1.7.463c.715-.939,2.179-1.2,2.506-2.452a.905.905,0,0,1-1.19-.346,4.276,4.276,0,0,1,1.021-2.08M648.109,982.6c.792-.854,1-2.051,1.612-3.008.257.254.1.626.035.924a12.475,12.475,0,0,1-1.03,2.681,2.339,2.339,0,0,1-1.607.9c-.327.049-.717.263-1.013.022a23.964,23.964,0,0,1,2-1.519m45.331,3.229a3.86,3.86,0,0,1,.687-.981c.34.233.742.516.789.962a1.988,1.988,0,0,1-.766,1.227,7.757,7.757,0,0,1-.766-.644,2.1,2.1,0,0,1-.759.943c-.283-.231-.57-.457-.834-.709a6.344,6.344,0,0,1,.77-1.427c.415-.055.6.413.879.63M682.7,987.6a10.473,10.473,0,0,1,.6-.974,1.057,1.057,0,0,1,.776,1.2,2.261,2.261,0,0,1-.635.956c-.348-.016-.528-.42-.783-.623a2.672,2.672,0,0,1-.607.928c-.4-.034-.636-.448-.934-.677a5.027,5.027,0,0,1,.835-1.514,3.11,3.11,0,0,1,.75.7m37.87,1.141a3.181,3.181,0,0,1,.766-1.6,2.3,2.3,0,0,1,.866.852,1.9,1.9,0,0,1-.705,1.418,4.553,4.553,0,0,1-.927-.671m-38.013.079c.209-.259.489.091.622.261.462.57-.068,1.278-.449,1.735-.294-.253-.558-.537-.85-.792a6.766,6.766,0,0,1,.676-1.2m5.566,5.087c.31-.289.516-.692.906-.886a6.306,6.306,0,0,1-1.583,2.649,85.264,85.264,0,0,1-7.193,5.925c-.227.182-.461.356-.7.517a3.02,3.02,0,0,1,.81-1.514c1.081-1.071,2.33-1.952,3.493-2.928a53.681,53.681,0,0,0,4.271-3.763m-.694,4.443a1.491,1.491,0,0,1,.929,1.036,2.907,2.907,0,0,1-.767,1.482c-.336-.266-.658-.549-.98-.829a6.313,6.313,0,0,1,.818-1.689m.82,1.988a1.257,1.257,0,0,1,.923,1.032,2.124,2.124,0,0,1-.7,1.277c-.131.148-.314,0-.419-.094-.187-.171-.356-.357-.541-.529a3.669,3.669,0,0,1-.66,1.046c-.43-.114-.709-.49-1.055-.74a5.269,5.269,0,0,1,.823-1.57l.2-.089a3.239,3.239,0,0,1,.773.778,5.975,5.975,0,0,1,.655-1.111m-10,4.68a6.345,6.345,0,0,1,1.061-3.07.757.757,0,0,1,.056.591c-.265,1.63,0,3.292-.314,4.917a8.093,8.093,0,0,1-1.274,3.5,4.271,4.271,0,0,1-3.528,1.989,2.747,2.747,0,0,1-1.927-.468,1.823,1.823,0,0,1-.322-1.5,7.845,7.845,0,0,1,.4-1.855c.4.181.055.7.288,1a.976.976,0,0,0,.708.555,5.055,5.055,0,0,0,3.206-.193,2.362,2.362,0,0,0,1.483-1.706,20.505,20.505,0,0,0,.164-3.766m6.926.558a6.216,6.216,0,0,1,.79-1.787,9.19,9.19,0,0,1-.069,1.279c-.053.321-.091.644-.122.97-.054.321-.091.647-.123.973a9.192,9.192,0,0,0-.085,3.265c.2.664,1.027.725,1.6.578.375-.243.683-.578,1.076-.8.1.02.3.056.4.074.377-.137.336-.626.616-.852.192-.006.4.088.582.011a8.834,8.834,0,0,0,.412-.916,1.2,1.2,0,0,1-.01,1.042,1.917,1.917,0,0,1-1.086,1.2,2.719,2.719,0,0,1-.55.582c-.264.1-.57-.06-.826.092-.584.407-.841,1.209-1.565,1.426a1.144,1.144,0,0,1-1.449-.754,8.583,8.583,0,0,1-.06-3.473c.137-.975.259-1.955.463-2.918m10.027-.824c-.057-.125-.244-.4.007-.438a5.246,5.246,0,0,1,2.248,5.994,5.591,5.591,0,0,1-2.146,2.867h-.255c.243-.638.66-1.192.913-1.826a5.826,5.826,0,0,0,.4-4.078,9.932,9.932,0,0,0-1.162-2.518m-29.35,4.77a5.482,5.482,0,0,1,2.513-4.9c.193.227-.038.455-.139.664a7.779,7.779,0,0,0-1.254,3.8,8.078,8.078,0,0,0,1.346,3.983,1.28,1.28,0,0,1,.174.486,1.174,1.174,0,0,1-.594-.316,5.469,5.469,0,0,1-2.046-3.722m18-2c.339-.259.415-.742.785-.971a2.909,2.909,0,0,1-.312,1.333,3.039,3.039,0,0,1-.587.984c-.472.354-1.119.471-1.492.954-.506.821-.7,1.876-1.493,2.489a3.705,3.705,0,0,1-2.279.372,2.8,2.8,0,0,1,.95-.807,5.727,5.727,0,0,0,1.969-1.682,9.074,9.074,0,0,1,.975-1.73,7.5,7.5,0,0,1,1.485-.941m-8.172-.4c.158-.215.445-.23.68-.311a3.845,3.845,0,0,1,.169.4,1.88,1.88,0,0,0-.753.308c.046.116.141.346.188.462a1,1,0,0,1-.824.653c-.176-.077-.622-.309-.325-.5.249-.03.5-.047.749-.083.05-.311-.162-.687.116-.928m7.8,6.872a1.192,1.192,0,0,1,.9,1.3,2.454,2.454,0,0,1-.756,1.144c-.39-.016-.581-.5-.88-.705a3.329,3.329,0,0,1-.669,1.04c-.455-.017-.761-.478-1.087-.76a7.176,7.176,0,0,1,.922-1.708,2.461,2.461,0,0,1,.886.823,8.858,8.858,0,0,1,.685-1.134m-.731,2.315a1.892,1.892,0,0,1,.8.764,2.235,2.235,0,0,1-.728,1.657c-.293-.3-.626-.562-.922-.86a5.84,5.84,0,0,1,.85-1.561Z" transform="translate(82.819 -276.046)" fill="#41638e"/>
  </g>
</svg>
