<svg xmlns="http://www.w3.org/2000/svg" width="33.215" height="29" viewBox="0 0 33.215 29">
  <g id="shop" transform="translate(0 -31.05)">
    <g id="Group_1017" data-name="Group 1017" transform="translate(0 31.05)">
      <path id="Path_1428" data-name="Path 1428" d="M254.953,263.75H250.44a2.242,2.242,0,0,0-2.24,2.24v3.461a2.242,2.242,0,0,0,2.24,2.24h4.513a2.242,2.242,0,0,0,2.24-2.24V265.99A2.242,2.242,0,0,0,254.953,263.75Zm.611,5.7a.613.613,0,0,1-.611.611H250.44a.613.613,0,0,1-.611-.611V265.99a.613.613,0,0,1,.611-.611h4.513a.613.613,0,0,1,.611.611Z" transform="translate(-231.355 -247.957)" fill="#fff"/>
      <path id="Path_1429" data-name="Path 1429" d="M33.215,40.552a.756.756,0,0,0-.109-.4l-4.941-8.687a.819.819,0,0,0-.706-.414H5.748a.8.8,0,0,0-.706.414L.109,40.151a.823.823,0,0,0-.109.4,4.764,4.764,0,0,0,2.85,4.357V59.236a.817.817,0,0,0,.814.814H29.543a.817.817,0,0,0,.814-.814V45.01a.359.359,0,0,0-.007-.088A4.777,4.777,0,0,0,33.215,40.552ZM6.224,32.686H26.984l3.862,6.794H2.369ZM23.638,41.1a3.13,3.13,0,0,1-6.162,0Zm-7.893,0a3.134,3.134,0,0,1-6.169,0Zm-14.062,0H7.852a3.134,3.134,0,0,1-6.169,0Zm12,17.32H9V49.632a1.16,1.16,0,0,1,1.161-1.161h2.369a1.16,1.16,0,0,1,1.161,1.161v8.789Zm15.046,0H15.311V49.632a2.794,2.794,0,0,0-2.789-2.789H10.153a2.794,2.794,0,0,0-2.789,2.789v8.8H4.479V45.309c.1.007.19.007.285.007a4.758,4.758,0,0,0,3.95-2.1,4.76,4.76,0,0,0,7.9,0,4.747,4.747,0,0,0,7.886,0,4.758,4.758,0,0,0,3.95,2.1c.1,0,.183-.007.278-.007V58.421ZM28.45,43.687a3.128,3.128,0,0,1-3.081-2.579h6.169A3.148,3.148,0,0,1,28.45,43.687Z" transform="translate(0 -31.05)" fill="#fff"/>
    </g>
  </g>
</svg>
