<svg xmlns="http://www.w3.org/2000/svg" width="24.11" height="34.872" viewBox="0 0 24.11 34.872"><g transform="translate(-287.357 -6.726)"><g transform="translate(207.45 6.976)"><path d="M103.262,27.48a.5.5,0,0,0,.5-.5V6.065a.5.5,0,0,0-.148-.357L98.058.148A.5.5,0,0,0,97.7,0H82.814a2.66,2.66,0,0,0-2.657,2.657V31.715a2.66,2.66,0,0,0,2.657,2.657h18.3a2.66,2.66,0,0,0,2.657-2.657V25.729a.5.5,0,1,0-1.009,0v5.987a1.65,1.65,0,0,1-1.648,1.648h-18.3a1.65,1.65,0,0,1-1.648-1.648V2.657a1.65,1.65,0,0,1,1.648-1.648H97.493l5.265,5.265v20.7A.5.5,0,0,0,103.262,27.48Z" transform="translate(0 0)" fill="#fff" stroke="#fff" stroke-miterlimit="10" stroke-width="0.5"/><path d="M137.847,180.694h12.915a1.583,1.583,0,0,0,1.581-1.581v-17.22a1.583,1.583,0,0,0-1.581-1.581H137.847a1.583,1.583,0,0,0-1.581,1.581v17.22A1.583,1.583,0,0,0,137.847,180.694Zm13.486-7.466H147.5v-5.448h3.834Zm-4.843,6.457h-4.374c0-.011,0-.022,0-.034v-18.33h4.372Zm-5.381-6.457h-3.834v-5.448h3.834Zm-3.834,5.886v-4.877h3.834v5.415c0,.011,0,.022,0,.034h-3.264A.572.572,0,0,1,137.275,179.113Zm13.487.572H147.5v-5.448h3.834v4.877A.572.572,0,0,1,150.761,179.685Zm.572-17.791v4.877H147.5v-5.448h3.262A.572.572,0,0,1,151.333,161.894Zm-13.486-.572h3.262v5.448h-3.834v-4.877A.572.572,0,0,1,137.847,161.322Z" transform="translate(-52.342 -149.551)" fill="#fff" stroke="#fff" stroke-miterlimit="10" stroke-width="0.5"/><path d="M123.4,44.887v-4.3a.5.5,0,0,0-.5-.5H120.74a.5.5,0,0,0-.5.5v4.3a.5.5,0,0,0,.5.5h2.152A.5.5,0,0,0,123.4,44.887Zm-1.009-.5h-1.143v-3.3h1.143Z" transform="translate(-37.387 -37.387)" fill="#fff"/><path d="M195.033,45.392a.5.5,0,0,0,.5-.5v-4.3a.5.5,0,0,0-.5-.5H192.88a.5.5,0,0,0-.5.5v4.3a.5.5,0,0,0,.5.5Zm-1.648-4.3h1.143v3.3h-1.143Z" transform="translate(-104.685 -37.387)" fill="#fff"/><path d="M267.174,45.392a.5.5,0,0,0,.5-.5v-4.3a.5.5,0,0,0-.5-.5h-2.152a.5.5,0,0,0-.5.5v4.3a.5.5,0,0,0,.5.5Zm-1.648-4.3h1.143v3.3h-1.143Z" transform="translate(-171.983 -37.387)" fill="#fff"/></g></g></svg>