<svg id="smartphone" xmlns="http://www.w3.org/2000/svg" width="37.38" height="58.031" viewBox="0 0 37.38 58.031">
  <path id="Path_686" data-name="Path 686" d="M117.834,0H87.8a3.678,3.678,0,0,0-3.674,3.674V54.357A3.678,3.678,0,0,0,87.8,58.031h30.032a3.678,3.678,0,0,0,3.674-3.674V3.674A3.678,3.678,0,0,0,117.834,0ZM85.969,9.234h33.7V47.612h-33.7ZM87.8,1.841h30.032a1.835,1.835,0,0,1,1.833,1.833V8.007h-33.7V3.674A1.835,1.835,0,0,1,87.8,1.841ZM117.834,56.19H87.8a1.835,1.835,0,0,1-1.833-1.833V48.839h33.7v5.518A1.835,1.835,0,0,1,117.834,56.19Z" transform="translate(-84.128)" fill="#909aa6"/>
  <path id="Path_687" data-name="Path 687" d="M214.857,404.552a3.015,3.015,0,1,0,3.015,3.015A3.018,3.018,0,0,0,214.857,404.552Zm0,4.8a1.788,1.788,0,1,1,1.788-1.788A1.79,1.79,0,0,1,214.857,409.355Z" transform="translate(-196.167 -354.899)" fill="#909aa6"/>
  <path id="Path_688" data-name="Path 688" d="M198.02,38.872h8.346a.614.614,0,1,0,0-1.227H198.02a.614.614,0,0,0,0,1.227Z" transform="translate(-183.503 -33.025)" fill="#909aa6"/>
  <path id="Path_689" data-name="Path 689" d="M180.023,38.872a.612.612,0,1,0-.434-.179A.617.617,0,0,0,180.023,38.872Z" transform="translate(-167.715 -33.025)" fill="#909aa6"/>
</svg>
