<svg id="statistics" xmlns="http://www.w3.org/2000/svg" width="24.658" height="24.658" viewBox="0 0 24.658 24.658">
  <path id="Path_1367" data-name="Path 1367" d="M33.167,11.558a2.156,2.156,0,0,0,1.5-.609l2.138,1.069a2.125,2.125,0,0,0-.027.263,2.167,2.167,0,0,0,4.334,0,2.141,2.141,0,0,0-.217-.928l2.9-2.9a2.141,2.141,0,0,0,.928.217A2.17,2.17,0,0,0,46.893,6.5a2.135,2.135,0,0,0-.108-.642l2.52-1.89a2.166,2.166,0,1,0-.968-1.8,2.134,2.134,0,0,0,.108.642L45.925,4.7a2.158,2.158,0,0,0-3.15,2.731l-2.9,2.9a2.13,2.13,0,0,0-2.428.392L35.308,9.654a2.123,2.123,0,0,0,.027-.263,2.167,2.167,0,1,0-2.167,2.167Zm0,0" transform="translate(-29.507 0)" fill="#41638e"/>
  <path id="Path_1368" data-name="Path 1368" d="M23.935,165.989h-.771V150.722a.722.722,0,0,0-.722-.722h-2.89a.722.722,0,0,0-.722.722v15.267H17.386V155.057a.722.722,0,0,0-.722-.722h-2.89a.722.722,0,0,0-.722.722v10.932H11.606v-5.153a.722.722,0,0,0-.722-.722H7.995a.722.722,0,0,0-.722.722v5.153H5.827v-8.043a.722.722,0,0,0-.722-.722H2.215a.722.722,0,0,0-.722.722v8.043H.722a.722.722,0,0,0,0,1.445H23.935a.722.722,0,0,0,0-1.445Zm0,0" transform="translate(0 -142.776)" fill="#41638e"/>
</svg>
