<svg xmlns="http://www.w3.org/2000/svg" width="18.105" height="16.708" viewBox="0 0 18.105 16.708">
  <g id="Support" transform="translate(-0.002 -0.001)">
    <path id="Path_99" data-name="Path 99" d="M647.207,540.669a3.18,3.18,0,0,0-1.468-2.427,7.307,7.307,0,0,0-2.967-.739l-.192-.019a22.289,22.289,0,0,0-5.915.158,7.172,7.172,0,0,0-1.358.329,2.991,2.991,0,0,0-1.343.911,4.275,4.275,0,0,0-.714,2.417l-.011.133a19.589,19.589,0,0,0-.067,2.2c.009.329.022.682.051,1.034a5.617,5.617,0,0,0,.724,2.564,2.692,2.692,0,0,0,2.177,1.179c.371.038,5.327.069,7.7.009l2.528,1.972a.527.527,0,0,0,.851-.4C647.212,549.673,647.437,542.113,647.207,540.669Zm-1.031,8.251-1.854-1.447a.527.527,0,0,0-.324-.111h-.015c-2.3.067-7.4.032-7.752,0a1.65,1.65,0,0,1-1.394-.7,4.674,4.674,0,0,1-.563-2.084c-.027-.329-.039-.665-.049-.979a18.63,18.63,0,0,1,.065-2.085l.011-.135a3.393,3.393,0,0,1,.484-1.841,1.977,1.977,0,0,1,.888-.583,6.2,6.2,0,0,1,1.156-.277,21.281,21.281,0,0,1,5.642-.151l.2.02a6.416,6.416,0,0,1,2.549.606,2.193,2.193,0,0,1,.95,1.676c.15.971.072,5.5.007,8.091Z" transform="translate(-629.203 -537.357)" fill="#2e4057"/>
    <path id="Path_100" data-name="Path 100" d="M635.094,558.121a.527.527,0,0,0-.728.163,1.648,1.648,0,0,1-1.392.7c-.355.03-5.447.066-7.754,0a.541.541,0,0,0-.339.111l-1.854,1.447c-.066-2.6-.143-7.117.011-8.086.151-.949.429-1.471.876-1.641a.527.527,0,1,0-.376-.985c-1.225.468-1.463,1.968-1.541,2.461-.23,1.444,0,9,.005,9.325a.527.527,0,0,0,.851.4l2.527-1.973c2.372.06,7.328.029,7.7-.009a2.692,2.692,0,0,0,2.177-1.179.528.528,0,0,0-.163-.734Z" transform="translate(-621.893 -545.419)" fill="#2e4057"/>
    <path id="Path_101" data-name="Path 101" d="M648.919,547.448H642.68a.527.527,0,0,0,0,1.054h6.239a.527.527,0,1,0,0-1.054Z" transform="translate(-635.032 -543.901)" fill="#2e4057"/>
    <path id="Path_102" data-name="Path 102" d="M645.315,555.683H642.68a.527.527,0,1,0,0,1.054h2.635a.527.527,0,1,0,0-1.054Z" transform="translate(-635.032 -549.242)" fill="#2e4057"/>
  </g>
</svg>
