<svg xmlns="http://www.w3.org/2000/svg" xmlns:xlink="http://www.w3.org/1999/xlink" width="126.785" height="124.899" viewBox="0 0 126.785 124.899">
  <defs>
    <linearGradient id="linear-gradient" x1="0.5" y1="1" x2="0.5" gradientUnits="objectBoundingBox">
      <stop offset="0" stop-color="#04aaf2"/>
      <stop offset="1" stop-color="#367ffb"/>
    </linearGradient>
  </defs>
  <g id="tell" transform="translate(-830.154 -1208.409)">
    <path id="Path_837" data-name="Path 837" d="M-.011,64.644V60.228C-.218,38.461,2.379,20.435,11.418,11.5,20.2,2.356,38.069-.293,59.888.07q3.507.078,7.013,0c21.819-.364,39.69,2.286,48.469,11.481,9.039,8.883,11.637,26.91,11.377,48.729V64.7c.208,21.819-2.338,39.793-11.377,48.729-8.779,9.143-26.7,11.845-48.469,11.481q-3.507-.078-7.013,0c-21.767.364-39.69-2.286-48.469-11.481C2.379,104.437-.218,86.463-.011,64.644Z" transform="translate(830.176 1208.371)" fill="url(#linear-gradient)"/>
    <g id="call" transform="translate(854 1234.982)">
      <g id="Group_630" data-name="Group 630" transform="translate(1 1.018)">
        <g id="Group_629" data-name="Group 629">
          <path id="Path_1191" data-name="Path 1191" d="M71.646,56.984,56.962,47.191a4.286,4.286,0,0,0-5.739.932l-4.277,5.5a1.828,1.828,0,0,1-2.344.493l-.814-.449c-2.7-1.47-6.053-3.3-12.815-10.065s-8.6-10.123-10.066-12.815l-.446-.814a1.83,1.83,0,0,1,.484-2.353l5.5-4.276a4.288,4.288,0,0,0,.933-5.739L17.58,2.922a4.264,4.264,0,0,0-5.747-1.294L5.693,5.316a8.662,8.662,0,0,0-3.95,5.126C-.468,18.5,1.2,32.4,21.678,52.889,37.971,69.181,50.1,73.562,58.438,73.562a21.419,21.419,0,0,0,5.682-.742,8.654,8.654,0,0,0,5.126-3.95l3.692-6.137A4.264,4.264,0,0,0,71.646,56.984Zm-.791,4.509-3.684,6.14a6.248,6.248,0,0,1-3.687,2.858c-7.438,2.042-20.432.351-40.1-19.314S2.033,18.521,4.075,11.082A6.258,6.258,0,0,1,6.937,7.39l6.14-3.684a1.85,1.85,0,0,1,2.494.561l5.32,7.987,4.465,6.7a1.861,1.861,0,0,1-.4,2.491l-5.5,4.276a4.231,4.231,0,0,0-1.121,5.431l.437.793c1.545,2.834,3.466,6.359,10.479,13.371S39.788,54.245,42.62,55.79l.794.438a4.232,4.232,0,0,0,5.431-1.121l4.276-5.5a1.862,1.862,0,0,1,2.491-.4L70.295,59A1.848,1.848,0,0,1,70.856,61.493Z" transform="translate(-1 -1.018)" fill="#fff"/>
          <path id="Path_1192" data-name="Path 1192" d="M283.837,71.742A20.576,20.576,0,0,1,304.39,92.295a1.209,1.209,0,1,0,2.418,0,23,23,0,0,0-22.971-22.971,1.209,1.209,0,0,0,0,2.418Z" transform="translate(-242.728 -59.647)" fill="#fff"/>
          <path id="Path_1193" data-name="Path 1193" d="M283.837,122.942a13.315,13.315,0,0,1,13.3,13.3,1.209,1.209,0,1,0,2.418,0,15.735,15.735,0,0,0-15.717-15.717,1.209,1.209,0,0,0,0,2.418Z" transform="translate(-242.728 -103.593)" fill="#fff"/>
          <path id="Path_1194" data-name="Path 1194" d="M283.837,174.142a6.052,6.052,0,0,1,6.045,6.045,1.209,1.209,0,1,0,2.418,0,8.472,8.472,0,0,0-8.463-8.463,1.209,1.209,0,1,0,0,2.418Z" transform="translate(-242.728 -147.539)" fill="#fff"/>
        </g>
      </g>
    </g>
  </g>
</svg>
