<svg xmlns="http://www.w3.org/2000/svg" width="1045.647" height="576.887" viewBox="0 0 1045.647 576.887">
  <g id="ticket" transform="translate(-22.492 -677.49)">
    <path id="Subtraction_7" data-name="Subtraction 7" d="M-3536.732-6978.114h-13.8a9.446,9.446,0,0,0,.316-2.429,9.424,9.424,0,0,0-9.413-9.415,9.425,9.425,0,0,0-9.414,9.415,9.446,9.446,0,0,0,.316,2.429h-12.805a9.435,9.435,0,0,0,.316-2.429,9.424,9.424,0,0,0-9.413-9.415,9.425,9.425,0,0,0-9.415,9.415,9.458,9.458,0,0,0,.316,2.429h-13.8a9.452,9.452,0,0,0,.316-2.429,9.425,9.425,0,0,0-9.415-9.415,9.424,9.424,0,0,0-9.412,9.415,9.449,9.449,0,0,0,.316,2.429h-13.516a9.436,9.436,0,0,0,.316-2.429,9.424,9.424,0,0,0-9.413-9.415,9.425,9.425,0,0,0-9.414,9.415,9.452,9.452,0,0,0,.316,2.429h-12.515a9.438,9.438,0,0,0,.316-2.429,9.425,9.425,0,0,0-9.415-9.415,9.424,9.424,0,0,0-9.413,9.415,9.439,9.439,0,0,0,.316,2.429h-13.384a9.449,9.449,0,0,0,.316-2.429,9.425,9.425,0,0,0-9.415-9.415,9.425,9.425,0,0,0-9.414,9.415,9.444,9.444,0,0,0,.316,2.429h-13.515a9.436,9.436,0,0,0,.316-2.429,9.425,9.425,0,0,0-9.415-9.415,9.424,9.424,0,0,0-9.413,9.415,9.45,9.45,0,0,0,.316,2.429h-13.515a9.438,9.438,0,0,0,.316-2.429,9.425,9.425,0,0,0-9.415-9.415,9.425,9.425,0,0,0-9.415,9.415,9.444,9.444,0,0,0,.316,2.429h-13.514a9.457,9.457,0,0,0,.316-2.429,9.425,9.425,0,0,0-9.414-9.415,9.424,9.424,0,0,0-9.413,9.415,9.458,9.458,0,0,0,.316,2.429h-13.516a9.449,9.449,0,0,0,.316-2.429,9.424,9.424,0,0,0-9.413-9.415,9.425,9.425,0,0,0-9.415,9.415,9.455,9.455,0,0,0,.316,2.429h-13.514a9.446,9.446,0,0,0,.316-2.429,9.425,9.425,0,0,0-9.414-9.415,9.424,9.424,0,0,0-9.413,9.415,9.458,9.458,0,0,0,.316,2.429H-3897.8a9.438,9.438,0,0,0,.316-2.429,9.424,9.424,0,0,0-9.413-9.415,9.425,9.425,0,0,0-9.415,9.415,9.45,9.45,0,0,0,.316,2.429h-13.515a9.438,9.438,0,0,0,.316-2.429,9.425,9.425,0,0,0-9.415-9.415,9.425,9.425,0,0,0-9.415,9.415,9.439,9.439,0,0,0,.316,2.429h-13.515a9.446,9.446,0,0,0,.316-2.429,9.424,9.424,0,0,0-9.413-9.415,9.425,9.425,0,0,0-9.415,9.415,9.444,9.444,0,0,0,.316,2.429h-13.514a9.452,9.452,0,0,0,.316-2.429,9.425,9.425,0,0,0-9.415-9.415,9.425,9.425,0,0,0-9.415,9.415,9.439,9.439,0,0,0,.316,2.429h-13.625a9.524,9.524,0,0,0,.107-1.427,9.424,9.424,0,0,0-9.413-9.415,9.426,9.426,0,0,0-9.415,9.415,9.5,9.5,0,0,0,.108,1.427h-13.1a9.519,9.519,0,0,0,.108-1.427,9.426,9.426,0,0,0-9.415-9.415,9.425,9.425,0,0,0-9.413,9.415,9.5,9.5,0,0,0,.108,1.427h-13.1a9.485,9.485,0,0,0,.107-1.427,9.424,9.424,0,0,0-9.413-9.415,9.426,9.426,0,0,0-9.415,9.415,9.477,9.477,0,0,0,.108,1.427h-13.1a9.552,9.552,0,0,0,.107-1.427,9.425,9.425,0,0,0-9.415-9.415,9.425,9.425,0,0,0-9.413,9.415,9.531,9.531,0,0,0,.107,1.427h-12.1a9.5,9.5,0,0,0,.108-1.427,9.425,9.425,0,0,0-9.415-9.415,9.425,9.425,0,0,0-9.415,9.415,9.541,9.541,0,0,0,.107,1.427h-14.1a9.552,9.552,0,0,0,.107-1.427,9.425,9.425,0,0,0-9.415-9.415,9.426,9.426,0,0,0-9.415,9.415,9.4,9.4,0,0,0,.108,1.427h-13.1a9.449,9.449,0,0,0,.108-1.427,9.425,9.425,0,0,0-9.413-9.415,9.425,9.425,0,0,0-9.415,9.415,9.541,9.541,0,0,0,.107,1.427h-13.1a9.552,9.552,0,0,0,.107-1.427,9.425,9.425,0,0,0-9.415-9.415,9.426,9.426,0,0,0-9.415,9.415,9.477,9.477,0,0,0,.108,1.427h-14.415a9.492,9.492,0,0,0,.108-1.427,9.425,9.425,0,0,0-9.415-9.415,9.426,9.426,0,0,0-9.415,9.415,9.477,9.477,0,0,0,.108,1.427h-13.1a9.552,9.552,0,0,0,.107-1.427,9.425,9.425,0,0,0-9.413-9.415,9.425,9.425,0,0,0-9.415,9.415,9.541,9.541,0,0,0,.107,1.427h-13.1a9.425,9.425,0,0,0,.108-1.427,9.425,9.425,0,0,0-9.415-9.415,9.425,9.425,0,0,0-9.415,9.415,9.541,9.541,0,0,0,.107,1.427h-13.1a9.552,9.552,0,0,0,.107-1.427,9.425,9.425,0,0,0-9.413-9.415,9.425,9.425,0,0,0-9.415,9.415,9.492,9.492,0,0,0,.108,1.427h-12.1a9.552,9.552,0,0,0,.107-1.427,9.425,9.425,0,0,0-9.413-9.415,9.425,9.425,0,0,0-9.415,9.415,9.531,9.531,0,0,0,.107,1.427h-14.1a9.552,9.552,0,0,0,.107-1.427,9.425,9.425,0,0,0-9.415-9.415,9.425,9.425,0,0,0-9.413,9.415,9.541,9.541,0,0,0,.108,1.427h-13.1a9.542,9.542,0,0,0,.107-1.427,9.425,9.425,0,0,0-9.415-9.415,9.425,9.425,0,0,0-9.415,9.415,9.541,9.541,0,0,0,.107,1.427h-12.385a24.844,24.844,0,0,1-9.731-1.965,24.9,24.9,0,0,1-7.946-5.358,24.9,24.9,0,0,1-5.358-7.946,24.841,24.841,0,0,1-1.965-9.731v-132.223a30,30,0,0,0,18.109-10.023,29.886,29.886,0,0,0,5.365-8.973,29.865,29.865,0,0,0,1.948-10.656,29.873,29.873,0,0,0-1.948-10.657,29.885,29.885,0,0,0-5.365-8.974,30,30,0,0,0-18.109-10.023V-7529a24.841,24.841,0,0,1,1.965-9.731,24.9,24.9,0,0,1,5.358-7.946,24.9,24.9,0,0,1,7.946-5.358,24.844,24.844,0,0,1,9.731-1.965h994.647a24.841,24.841,0,0,1,9.731,1.965,24.909,24.909,0,0,1,7.947,5.358,24.906,24.906,0,0,1,5.358,7.946,24.843,24.843,0,0,1,1.965,9.731v334.135a29.9,29.9,0,0,0-19.337,9.6,29.919,29.919,0,0,0-7.886,20.275,29.919,29.919,0,0,0,7.886,20.273,29.906,29.906,0,0,0,19.337,9.6v132a24.841,24.841,0,0,1-1.965,9.731,24.906,24.906,0,0,1-5.358,7.946,24.9,24.9,0,0,1-7.947,5.358,24.841,24.841,0,0,1-9.731,1.965h-12.175a9.438,9.438,0,0,0,.316-2.429,9.425,9.425,0,0,0-9.415-9.415,9.425,9.425,0,0,0-9.415,9.415,9.455,9.455,0,0,0,.316,2.429Z" transform="translate(4549 8231.991)" fill="#fff" stroke="rgba(0,0,0,0)" stroke-width="1"/>
    <line id="Line_10" data-name="Line 10" x2="943" transform="translate(72.915 1067.5)" fill="none" stroke="#394453" stroke-width="1" stroke-dasharray="20"/>
  </g>
</svg>
