<svg xmlns="http://www.w3.org/2000/svg" width="57.447" height="57.446" viewBox="0 0 57.447 57.446">
  <g id="ticket_menu" transform="translate(0)">
    <path id="Path_837" data-name="Path 837" d="M122.341,199.08a1.122,1.122,0,1,0-.793-.329A1.13,1.13,0,0,0,122.341,199.08Zm0,0" transform="translate(-107.618 -174.751)" fill="#fff"/>
    <path id="Path_838" data-name="Path 838" d="M259.307,200.993a1.124,1.124,0,1,0,.328.793A1.132,1.132,0,0,0,259.307,200.993Zm0,0" transform="translate(-228.511 -178.15)" fill="#fff"/>
    <path id="Path_839" data-name="Path 839" d="M293.513,167.908a1.122,1.122,0,1,0-.794-.329A1.13,1.13,0,0,0,293.513,167.908Zm0,0" transform="translate(-259.583 -147.076)" fill="#fff"/>
    <path id="Path_840" data-name="Path 840" d="M54.081,27.6H50.951l5.511-5.511a3.366,3.366,0,0,0,0-4.76l-5-5a1.122,1.122,0,0,0-1.587,0,3.366,3.366,0,0,1-4.76-4.76,1.122,1.122,0,0,0,0-1.587l-5-5a3.365,3.365,0,0,0-4.76,0L16.826,19.517A1.122,1.122,0,1,0,18.413,21.1L36.944,2.573a1.122,1.122,0,0,1,1.587,0l4.284,4.284a5.612,5.612,0,0,0,7.776,7.776l4.284,4.284a1.123,1.123,0,0,1,0,1.587l-7.1,7.1H42.858l3.686-3.686a1.122,1.122,0,0,0,0-1.587L35.12,10.9a1.122,1.122,0,0,0-1.587,0l-16.7,16.7H3.367A3.37,3.37,0,0,0,0,30.967v7.069a1.122,1.122,0,0,0,1.122,1.122,3.366,3.366,0,0,1,0,6.732A1.122,1.122,0,0,0,0,47.012V54.08a3.37,3.37,0,0,0,3.366,3.366H54.081a3.37,3.37,0,0,0,3.366-3.366V47.012a1.122,1.122,0,0,0-1.122-1.122,3.366,3.366,0,0,1,0-6.732,1.122,1.122,0,0,0,1.122-1.122V30.967A3.37,3.37,0,0,0,54.081,27.6ZM34.326,13.283l9.838,9.838-4.48,4.48H35.242l3.289-3.29a1.122,1.122,0,0,0-1.587-1.587L32.068,27.6H20.009ZM55.2,37.026a5.611,5.611,0,0,0,0,10.995V54.08A1.123,1.123,0,0,1,54.081,55.2H3.367A1.123,1.123,0,0,1,2.245,54.08V48.021a5.611,5.611,0,0,0,0-10.995V30.967a1.123,1.123,0,0,1,1.122-1.122H54.081A1.123,1.123,0,0,1,55.2,30.967Zm0,0" transform="translate(0 0)" fill="#fff"/>
    <path id="Path_841" data-name="Path 841" d="M198.415,346.911a1.122,1.122,0,1,0-.793.329A1.132,1.132,0,0,0,198.415,346.911Zm0,0" transform="translate(-174.452 -306.287)" fill="#fff"/>
    <path id="Path_842" data-name="Path 842" d="M297.415,346.911a1.122,1.122,0,1,0-.793.329A1.132,1.132,0,0,0,297.415,346.911Zm0,0" transform="translate(-262.344 -306.287)" fill="#fff"/>
    <path id="Path_843" data-name="Path 843" d="M247.915,346.911a1.122,1.122,0,1,0-.793.329A1.132,1.132,0,0,0,247.915,346.911Zm0,0" transform="translate(-218.398 -306.287)" fill="#fff"/>
    <path id="Path_844" data-name="Path 844" d="M148.122,347.24a1.122,1.122,0,1,0-.793-.329A1.131,1.131,0,0,0,148.122,347.24Zm0,0" transform="translate(-130.506 -306.287)" fill="#fff"/>
    <path id="Path_845" data-name="Path 845" d="M346.915,346.911a1.122,1.122,0,1,0-.793.329A1.131,1.131,0,0,0,346.915,346.911Zm0,0" transform="translate(-306.29 -306.287)" fill="#fff"/>
    <path id="Path_846" data-name="Path 846" d="M148.122,395.24h22.216a1.122,1.122,0,1,0,0-2.244H148.122a1.122,1.122,0,0,0,0,2.244Zm0,0" transform="translate(-130.506 -348.902)" fill="#fff"/>
    <path id="Path_847" data-name="Path 847" d="M184.442,441a1.122,1.122,0,1,0,.793.329A1.131,1.131,0,0,0,184.442,441Zm0,0" transform="translate(-162.751 -391.516)" fill="#fff"/>
    <path id="Path_848" data-name="Path 848" d="M129.231,297H95.122A1.122,1.122,0,0,0,94,298.118v16.157a1.122,1.122,0,0,0,1.122,1.122H99.8a1.122,1.122,0,1,0,0-2.244H96.244V299.24h31.865v13.913H109.894a1.122,1.122,0,1,0,0,2.244h19.337a1.122,1.122,0,0,0,1.122-1.122V298.118A1.122,1.122,0,0,0,129.231,297Zm0,0" transform="translate(-83.453 -263.673)" fill="#fff"/>
  </g>
</svg>
