<svg xmlns="http://www.w3.org/2000/svg" width="99.86" height="318.622" viewBox="0 0 99.86 318.622">
  <g id="Tower_white" transform="translate(-39.65 -5.12)">
    <path id="Path_849" data-name="Path 849" d="M47.173,122.926H94.74a2.677,2.677,0,0,0,2.653-2.653,2.646,2.646,0,0,0-2.653-2.653H91.7A20.793,20.793,0,0,0,73.61,99.529V7.773a2.653,2.653,0,1,0-5.307,0V99.529a20.924,20.924,0,0,0-11.964,5.789l-.145.145a20.554,20.554,0,0,0-5.982,12.157H47.173a2.646,2.646,0,0,0-2.653,2.653A2.677,2.677,0,0,0,47.173,122.926Zm12.736-13.7.145-.145a15.608,15.608,0,0,1,21.95.145,15.671,15.671,0,0,1,4.342,8.394H55.567A15.671,15.671,0,0,1,59.909,109.226Z" transform="translate(18.624)" fill="#fff"/>
    <path id="Path_850" data-name="Path 850" d="M49.45,80.368a2.653,2.653,0,1,0,5.307,0V60.733a2.653,2.653,0,1,0-5.307,0Z" transform="translate(37.477 202.528)" fill="#fff"/>
    <path id="Path_851" data-name="Path 851" d="M52.1,76.121a2.677,2.677,0,0,0,2.653-2.653V53.833a2.653,2.653,0,1,0-5.307,0V73.468A2.677,2.677,0,0,0,52.1,76.121Z" transform="translate(37.477 176.141)" fill="#fff"/>
    <path id="Path_852" data-name="Path 852" d="M39.7,58.9a2.585,2.585,0,0,0,.241.531l.1.193v.048l.048.048.1.1v.048L62.468,92.424v.048l.193.289,9.5,13.845-2.88,121.072h5.258L77.375,108.44h24.41l2.822,119.239h5.307l-2.87-121.072L138.98,59.86l.048-.048.048-.1.048-.048v-.048l.1-.193a1.782,1.782,0,0,0,.241-.531v-.1a2.35,2.35,0,0,0,.048-.579,2.258,2.258,0,0,0-.1-.82l-.048-.048v-.1l-.048-.048v-.1l-.048-.048-.048-.048-.1-.145v-.1l-.048-.048-.048-.1h-.048V56.58l-.048-.048-.1-.1-.048-.048-.1-.1-.048-.048h-.048v-.048h-.048l-.145-.145L138.3,56l-.048-.048a2.638,2.638,0,0,0-1.4-.386h-4.872V43.941a2.646,2.646,0,0,0-2.653-2.653h-5.789V35.547a2.659,2.659,0,0,0-.241-5.307H55.859a2.659,2.659,0,0,0-.241,5.307v5.741H49.829a2.646,2.646,0,0,0-2.653,2.653V55.567H42.3a2.638,2.638,0,0,0-1.4.386L40.856,56l-.048.048-.193.145h-.048v.048h-.048l-.193.193-.048.1h-.048v.048l-.193.193v.1l-.1.145-.048.048v.048l-.048.1v.048l-.048.1V57.4a2.254,2.254,0,0,0-.145.82,2.349,2.349,0,0,0,.048.579ZM63.24,84.174,68.6,76.89l1.061,1.4a2.619,2.619,0,0,0,3.666.531,2.586,2.586,0,0,0,.579-3.666l-1.978-2.7L79.5,62.176,86.927,72.21l-6.32,8.539a2.677,2.677,0,0,0,.531,3.715,2.636,2.636,0,0,0,3.715-.579l5.355-7.236,8.78,11.819H66.135Zm.1-23.3H73.9L68.6,68.013Zm21.805,0H95.321l-5.114,6.9Zm46.7,0-28.9,42.26H76.217L69.8,93.774h33.914a2.762,2.762,0,0,0,2.171-.482,2.527,2.527,0,0,0,1.013-1.785h.048v-.386a2.7,2.7,0,0,0-.868-1.978L93.536,72.21l7.14-9.648,6.8,9.118.193.241-2.074,2.8a2.677,2.677,0,0,0,.531,3.715,2.636,2.636,0,0,0,3.715-.579l12.591-16.981Zm-25.809,0h9.841l-4.921,6.609Zm5.017-25.327h7.188v5.741h-7.188Zm-12.543,0h7.236v5.741H98.5Zm-12.543,0H93.2v5.741H85.962Zm-12.495,0h7.188v5.741H73.467Zm-12.543,0h7.236v5.741H60.925ZM52.482,46.594h74.2v8.973h-74.2Zm4.245,14.28,8.587,11.578-5.258,7.092L47.32,60.874Z" transform="translate(0 96.063)" fill="#fff"/>
    <path id="Path_853" data-name="Path 853" d="M49.45,87.268a2.653,2.653,0,1,0,5.307,0V67.633a2.653,2.653,0,0,0-5.307,0Z" transform="translate(37.477 228.915)" fill="#fff"/>
  </g>
</svg>
