<svg xmlns="http://www.w3.org/2000/svg" width="93.517" height="203.539" viewBox="0 0 93.517 203.539">
  <g id="Tower_icn" transform="translate(-22.656 -5.12)">
    <path id="Path_849" data-name="Path 849" d="M46.215,80.376H76.6A1.71,1.71,0,0,0,78.3,78.681,1.69,1.69,0,0,0,76.6,76.986H74.659A13.283,13.283,0,0,0,63.1,65.43V6.815a1.695,1.695,0,1,0-3.39,0V65.43a13.367,13.367,0,0,0-7.643,3.7l-.092.092a13.13,13.13,0,0,0-3.821,7.766H46.215a1.69,1.69,0,0,0-1.695,1.695A1.71,1.71,0,0,0,46.215,80.376Zm8.136-8.752.092-.092a9.971,9.971,0,0,1,14.022.092,10.011,10.011,0,0,1,2.774,5.362H51.577A10.011,10.011,0,0,1,54.351,71.624Z" transform="translate(10.138)" fill="#2e4057"/>
    <path id="Path_850" data-name="Path 850" d="M49.45,72.318a1.695,1.695,0,1,0,3.39,0V59.775a1.695,1.695,0,1,0-3.39,0Z" transform="translate(20.401 110.249)" fill="#2e4057"/>
    <path id="Path_851" data-name="Path 851" d="M51.145,67.113a1.71,1.71,0,0,0,1.695-1.695V52.875a1.695,1.695,0,1,0-3.39,0V65.418A1.71,1.71,0,0,0,51.145,67.113Z" transform="translate(20.401 95.885)" fill="#2e4057"/>
    <path id="Path_852" data-name="Path 852" d="M39.681,48.545a1.651,1.651,0,0,0,.154.339l.062.123v.031l.031.031.062.062v.031l14.238,20.8v.031l.123.185,6.071,8.845-1.84,77.342H61.94l1.809-76.171H79.343l1.8,76.171h3.39L82.7,79.024l20.4-29.862.031-.031.031-.062.031-.031v-.031l.062-.123a1.138,1.138,0,0,0,.154-.339v-.062a1.5,1.5,0,0,0,.031-.37,1.442,1.442,0,0,0-.062-.524l-.031-.031V47.5l-.031-.031v-.062l-.031-.031-.031-.031-.062-.092V47.19l-.031-.031-.031-.062H103.1v-.031l-.031-.031-.062-.062-.031-.031-.062-.062-.031-.031h-.031V46.82h-.031l-.092-.092-.062-.031-.031-.031a1.685,1.685,0,0,0-.894-.247H98.634V38.992A1.69,1.69,0,0,0,96.939,37.3h-3.7V33.63a1.7,1.7,0,0,0-.154-3.39H50a1.7,1.7,0,0,0-.154,3.39V37.3h-3.7a1.69,1.69,0,0,0-1.695,1.695v7.427H41.345a1.685,1.685,0,0,0-.894.247l-.031.031-.031.031-.123.092h-.031v.031H40.2l-.123.123-.031.062H40.02v.031l-.123.123v.062l-.062.092-.031.031v.031l-.031.062V47.5l-.031.062v.031a1.44,1.44,0,0,0-.092.524,1.5,1.5,0,0,0,.031.37ZM54.72,64.694,58.14,60.04l.678.894a1.673,1.673,0,0,0,2.342.339,1.652,1.652,0,0,0,.37-2.342l-1.264-1.726,4.838-6.564,4.746,6.41-4.037,5.455a1.71,1.71,0,0,0,.339,2.373,1.684,1.684,0,0,0,2.373-.37l3.421-4.623,5.609,7.55H56.569Zm.062-14.885H61.53L58.14,54.37Zm13.929,0h6.5l-3.267,4.407Zm29.831,0-18.46,27H63.01l-4.1-5.979H80.575a1.764,1.764,0,0,0,1.387-.308,1.614,1.614,0,0,0,.647-1.14h.031v-.247a1.721,1.721,0,0,0-.555-1.264L74.073,57.051l4.561-6.163,4.345,5.824.123.154-1.325,1.787a1.71,1.71,0,0,0,.339,2.373,1.684,1.684,0,0,0,2.373-.37l8.043-10.848Zm-16.487,0h6.287L85.2,54.031ZM85.26,33.63h4.592V37.3H85.26Zm-8.013,0H81.87V37.3H77.247Zm-8.013,0h4.623V37.3H69.235Zm-7.982,0h4.592V37.3H61.253Zm-8.012,0h4.623V37.3H53.24Zm-5.393,7.057h47.4v5.732h-47.4Zm2.712,9.122,5.485,7.4-3.359,4.53L44.55,49.809Z" transform="translate(0 52.293)" fill="#2e4057"/>
    <path id="Path_853" data-name="Path 853" d="M49.45,79.218a1.695,1.695,0,1,0,3.39,0V66.675a1.695,1.695,0,0,0-3.39,0Z" transform="translate(20.401 124.612)" fill="#2e4057"/>
    <ellipse id="Ellipse_3" data-name="Ellipse 3" cx="8.609" cy="8.609" rx="8.609" ry="8.609" transform="translate(22.656 132.948)" fill="#fe575f"/>
    <ellipse id="Ellipse_5" data-name="Ellipse 5" cx="8.609" cy="8.609" rx="8.609" ry="8.609" transform="translate(26.217 40.12)" fill="#3a86ff"/>
    <ellipse id="Ellipse_325" data-name="Ellipse 325" cx="6.261" cy="6.261" rx="6.261" ry="6.261" transform="translate(103.65 44.733)" fill="#fcc810"/>
  </g>
</svg>
