<svg xmlns="http://www.w3.org/2000/svg" width="55.669" height="177.074" viewBox="0 0 55.669 177.074">
  <g id="Tower" transform="translate(-39.525 -4.995)">
    <path id="Path_849" data-name="Path 849" d="M45.992,70.5h26.4a1.486,1.486,0,0,0,1.472-1.472,1.468,1.468,0,0,0-1.472-1.472H70.7a11.54,11.54,0,0,0-10.04-10.04V6.592a1.472,1.472,0,1,0-2.945,0V57.514a11.612,11.612,0,0,0-6.64,3.213l-.08.08a11.407,11.407,0,0,0-3.32,6.747H45.992a1.468,1.468,0,0,0-1.472,1.472A1.486,1.486,0,0,0,45.992,70.5Zm7.068-7.6.08-.08a8.662,8.662,0,0,1,12.181.08,8.7,8.7,0,0,1,2.41,4.658H50.651A8.7,8.7,0,0,1,53.06,62.9Z" transform="translate(8.168)" fill="#2e4057" stroke="#000" stroke-miterlimit="10" stroke-width="0.25"/>
    <path id="Path_850" data-name="Path 850" d="M49.45,70.449a1.472,1.472,0,0,0,2.945,0v-10.9a1.472,1.472,0,0,0-2.945,0Z" transform="translate(16.437 88.827)" fill="#2e4057" stroke="#000" stroke-miterlimit="10" stroke-width="0.25"/>
    <path id="Path_851" data-name="Path 851" d="M50.922,65.021a1.486,1.486,0,0,0,1.472-1.472v-10.9a1.472,1.472,0,0,0-2.945,0v10.9A1.486,1.486,0,0,0,50.922,65.021Z" transform="translate(16.437 77.254)" fill="#2e4057" stroke="#000" stroke-miterlimit="10" stroke-width="0.25"/>
    <path id="Path_852" data-name="Path 852" d="M39.677,46.143a1.434,1.434,0,0,0,.134.295l.054.107v.027l.027.027.054.054v.027L52.313,64.75v.027l.107.161,5.274,7.684-1.6,67.191h2.918l1.572-66.174H74.133L75.7,139.812h2.945L77.051,72.621,94.775,46.678l.027-.027.027-.054.027-.027v-.027l.054-.107a.989.989,0,0,0,.134-.295v-.054a1.3,1.3,0,0,0,.027-.321,1.253,1.253,0,0,0-.054-.455l-.027-.027v-.054l-.027-.027v-.054l-.027-.027-.027-.027-.054-.08v-.054l-.027-.027-.027-.054h-.027v-.027l-.027-.027-.054-.054-.027-.027-.054-.054-.027-.027H94.56v-.027h-.027l-.08-.08-.054-.027-.027-.027A1.464,1.464,0,0,0,93.6,44.3h-2.7V37.843a1.468,1.468,0,0,0-1.472-1.472H86.207V33.185a1.476,1.476,0,0,0-.134-2.945H48.646a1.476,1.476,0,0,0-.134,2.945v3.186H45.3a1.468,1.468,0,0,0-1.472,1.472V44.3h-2.7a1.464,1.464,0,0,0-.776.214l-.027.027-.027.027-.107.08h-.027v.027h-.027l-.107.107L40,44.831h-.027v.027l-.107.107v.054l-.054.08-.027.027v.027l-.027.054v.027l-.027.054v.027a1.251,1.251,0,0,0-.08.455,1.3,1.3,0,0,0,.027.321ZM52.742,60.172l2.972-4.043.589.776a1.453,1.453,0,0,0,2.035.295,1.435,1.435,0,0,0,.321-2.035l-1.1-1.5,4.2-5.7,4.123,5.569L62.38,58.271a1.486,1.486,0,0,0,.294,2.061,1.463,1.463,0,0,0,2.061-.321L67.708,56l4.873,6.559H54.348ZM52.8,47.241h5.863L55.714,51.2Zm12.1,0h5.649l-2.838,3.828Zm25.916,0L74.776,70.693H59.944L56.383,65.5H75.2a1.533,1.533,0,0,0,1.2-.268,1.4,1.4,0,0,0,.562-.991H77v-.214a1.5,1.5,0,0,0-.482-1.1l-6.961-9.4,3.962-5.354,3.775,5.06.107.134-1.151,1.553a1.486,1.486,0,0,0,.294,2.061,1.463,1.463,0,0,0,2.061-.321l6.988-9.424Zm-14.323,0h5.462L79.22,50.908Zm2.784-14.056h3.989v3.186H79.273Zm-6.961,0h4.016v3.186H72.312Zm-6.961,0h4.016v3.186H65.352Zm-6.934,0h3.989v3.186H58.418Zm-6.961,0h4.016v3.186H51.457Zm-4.685,6.131H87.948V44.3H46.771Zm2.356,7.925,4.766,6.425L50.975,57.6,43.907,47.241Z" transform="translate(0 42.133)" fill="#2e4057" stroke="#000" stroke-miterlimit="10" stroke-width="0.25"/>
    <path id="Path_853" data-name="Path 853" d="M49.45,77.349a1.472,1.472,0,0,0,2.945,0v-10.9a1.472,1.472,0,0,0-2.945,0Z" transform="translate(16.437 100.4)" fill="#2e4057" stroke="#000" stroke-miterlimit="10" stroke-width="0.25"/>
  </g>
</svg>
