<svg xmlns="http://www.w3.org/2000/svg" width="55.299" height="51.701" viewBox="0 0 55.299 51.701">
  <g id="wallet" transform="translate(-390.885 -535.27)">
    <path id="Path_105" data-name="Path 105" d="M445.731,557.65c-.3-3.63-.844-7.388-3.721-9.942-.172-.152-.36-.281-.541-.42l-.781-3.809a10.278,10.278,0,0,0-13.465-7.63L401.6,544.47a12.034,12.034,0,0,0-7.682,5.029c-2.015,3.085-2.554,6.807-2.8,9.7-.127,1.5-.176,2.995-.211,4.278a82.324,82.324,0,0,0,.393,9.588c.241,2.709.664,5.8,2.648,8.207a11.349,11.349,0,0,0,5.088,3.352,28.545,28.545,0,0,0,5.283,1.246,92.12,92.12,0,0,0,14.056,1.1,90.02,90.02,0,0,0,9.318-.487l.781-.076c3.9-.382,7.941-.776,11.556-2.789,2.988-1.664,4.859-4.7,5.562-9.024C446.544,568.749,446.163,562.783,445.731,557.65ZM428.2,538.686a7.275,7.275,0,0,1,9.548,5.4l.28,1.361a29.868,29.868,0,0,0-5.85-1.35,95.185,95.185,0,0,0-14.134-1.138c-.926,0-1.847.039-2.767.078ZM438.569,581c-3.067,1.71-6.789,2.073-10.386,2.424l-.793.078a87.537,87.537,0,0,1-22.615-.59,25.8,25.8,0,0,1-4.721-1.1,8.46,8.46,0,0,1-3.791-2.439c-1.439-1.744-1.765-4.2-1.975-6.564a79.776,79.776,0,0,1-.383-9.238c.035-1.242.082-2.687.2-4.109.215-2.547.674-5.794,2.322-8.318a8.534,8.534,0,0,1,5.028-3.513,1.531,1.531,0,0,0,.379-.07l.429-.145a20.292,20.292,0,0,1,2.31-.411,119,119,0,0,1,13.482-1.044h.286a91.855,91.855,0,0,1,13.4,1.108c2.907.424,6.184,1.033,8.274,2.889,1.566,1.39,2.172,3.459,2.49,5.761h-5.572a9.248,9.248,0,1,0,0,18.5h5.676C442.052,577.529,440.7,579.815,438.569,581Zm4.411-9.789h-6.044a6.248,6.248,0,1,1,0-12.5h5.87A74.3,74.3,0,0,1,442.98,571.209Z" fill="#fff"/>
    <path id="Path_106" data-name="Path 106" d="M435.256,562.493a2.469,2.469,0,1,0,2.469,2.468A2.471,2.471,0,0,0,435.256,562.493Zm0,3a.531.531,0,1,1,.531-.532A.532.532,0,0,1,435.256,565.493Z" fill="#fff"/>
  </g>
</svg>
