<svg xmlns="http://www.w3.org/2000/svg" width="86.246" height="80.635" viewBox="0 0 86.246 80.635">
  <g id="wallet_icn" transform="translate(-390.885 -535.27)">
    <path id="Path_105" data-name="Path 105" d="M476.424,570.175c-.476-5.661-1.316-11.523-5.8-15.506-.268-.237-.562-.438-.844-.655l-1.218-5.941a16.03,16.03,0,0,0-21-11.9L407.6,549.619c-4.192.983-8.851,3.049-11.981,7.844-3.143,4.811-3.983,10.616-4.367,15.136-.2,2.339-.275,4.671-.329,6.672a128.4,128.4,0,0,0,.613,14.954c.376,4.225,1.036,9.047,4.13,12.8a17.7,17.7,0,0,0,7.935,5.228,44.524,44.524,0,0,0,8.24,1.943,143.67,143.67,0,0,0,21.922,1.709,140.407,140.407,0,0,0,14.533-.76l1.218-.119c6.089-.6,12.385-1.21,18.023-4.35,4.66-2.6,7.578-7.332,8.675-14.074C477.692,587.485,477.1,578.18,476.424,570.175ZM449.083,540.6a11.346,11.346,0,0,1,14.891,8.417l.437,2.123a46.585,46.585,0,0,0-9.124-2.105,148.44,148.44,0,0,0-22.044-1.775c-1.444.006-2.881.061-4.315.122Zm16.172,65.991c-4.783,2.667-10.588,3.233-16.2,3.781l-1.237.122a136.529,136.529,0,0,1-35.271-.92,40.246,40.246,0,0,1-7.363-1.72,13.2,13.2,0,0,1-5.912-3.8c-2.244-2.72-2.753-6.549-3.08-10.237a124.426,124.426,0,0,1-.6-14.408c.055-1.937.128-4.191.317-6.409.335-3.972,1.051-9.036,3.621-12.973a13.31,13.31,0,0,1,7.842-5.479,2.387,2.387,0,0,0,.591-.109l.669-.226a31.644,31.644,0,0,1,3.6-.641,185.594,185.594,0,0,1,21.027-1.628h.446a143.249,143.249,0,0,1,20.9,1.728c4.534.661,9.645,1.611,12.9,4.506,2.442,2.168,3.388,5.395,3.883,8.985h-8.69a14.423,14.423,0,1,0,0,28.847h8.852C470.686,601.178,468.57,604.744,465.254,606.589Zm6.88-15.267h-9.426a9.745,9.745,0,1,1,0-19.489h9.155A115.87,115.87,0,0,1,472.134,591.321Z" fill="#fff"/>
    <path id="Path_106" data-name="Path 106" d="M436.638,562.493a3.85,3.85,0,1,0,3.851,3.849A3.855,3.855,0,0,0,436.638,562.493Zm0,4.679a.829.829,0,1,1,.828-.83A.83.83,0,0,1,436.638,567.172Z" transform="translate(23.449 15.235)" fill="#fff"/>
  </g>
</svg>
