<svg xmlns="http://www.w3.org/2000/svg" xmlns:xlink="http://www.w3.org/1999/xlink" width="126.786" height="124.899" viewBox="0 0 126.786 124.899">
  <defs>
    <linearGradient id="linear-gradient" x1="0.5" y1="1" x2="0.5" gradientUnits="objectBoundingBox">
      <stop offset="0" stop-color="#04aaf2"/>
      <stop offset="1" stop-color="#367ffb"/>
    </linearGradient>
  </defs>
  <g id="web" transform="translate(-398.154 -1208.409)">
    <path id="Path_1195" data-name="Path 1195" d="M-.011,64.644V60.228C-.218,38.461,2.379,20.435,11.418,11.5,20.2,2.356,38.069-.293,59.888.07q3.507.078,7.013,0c21.819-.364,39.69,2.286,48.469,11.481,9.039,8.883,11.637,26.91,11.377,48.729V64.7c.208,21.819-2.338,39.793-11.377,48.729-8.779,9.143-26.7,11.845-48.469,11.481q-3.507-.078-7.013,0c-21.767.364-39.69-2.286-48.469-11.481C2.379,104.437-.218,86.463-.011,64.644Z" transform="translate(398.176 1208.371)" fill="url(#linear-gradient)"/>
    <path id="language_1_" data-name="language (1)" d="M35.1,0A35.1,35.1,0,1,0,70.2,35.1,35.1,35.1,0,0,0,35.1,0ZM65.453,47.394l-9.982,1.722a52.376,52.376,0,0,0,1.837-12.848H67.827a32.541,32.541,0,0,1-2.374,11.126ZM2.369,36.268H12.888a52.377,52.377,0,0,0,1.837,12.848L4.743,47.394A32.541,32.541,0,0,1,2.369,36.268ZM4.743,22.8l9.982-1.722a52.377,52.377,0,0,0-1.837,12.848H2.369A32.541,32.541,0,0,1,4.743,22.8Zm31.525-4.018A80.484,80.484,0,0,1,48.81,19.93l4.13.712a50.218,50.218,0,0,1,2.03,13.286h-18.7Zm12.941-1.161a82.929,82.929,0,0,0-12.941-1.179V2.406C42.975,3.05,48.8,9.191,52.1,18.128ZM33.928,16.445a82.915,82.915,0,0,0-12.94,1.179l-2.9.5c3.3-8.94,9.128-15.083,15.835-15.724ZM21.387,19.93a80.464,80.464,0,0,1,12.541-1.145V33.928h-18.7a50.219,50.219,0,0,1,2.03-13.286Zm-6.16,16.338h18.7V51.412a80.484,80.484,0,0,1-12.542-1.145l-4.13-.712a50.219,50.219,0,0,1-2.03-13.286Zm5.761,16.3a83.207,83.207,0,0,0,12.941,1.185V67.8c-6.707-.645-12.533-6.786-15.835-15.723Zm15.281,1.185a83.2,83.2,0,0,0,12.94-1.185l2.9-.5c-3.3,8.94-9.128,15.083-15.835,15.724Zm12.541-3.492a80.464,80.464,0,0,1-12.541,1.145V36.268h18.7a50.219,50.219,0,0,1-2.03,13.286Zm8.5-16.338A52.377,52.377,0,0,0,55.471,21.08L65.453,22.8a32.541,32.541,0,0,1,2.374,11.126Zm6.961-13.7L54.7,18.573A32.262,32.262,0,0,0,45.393,4.007,32.913,32.913,0,0,1,64.269,20.224ZM24.8,4.007a32.262,32.262,0,0,0-9.308,14.566L5.927,20.224A32.914,32.914,0,0,1,24.8,4.007ZM5.927,49.973l9.568,1.651A32.262,32.262,0,0,0,24.8,66.189,32.913,32.913,0,0,1,5.927,49.972ZM45.393,66.189A32.262,32.262,0,0,0,54.7,51.624l9.568-1.651A32.914,32.914,0,0,1,45.393,66.19Zm0,0" transform="translate(426 1235.5)" fill="#fff"/>
  </g>
</svg>
